<?xml version="1.0" encoding="UTF-8"?>
<svg width="80px" height="80px" viewBox="0 0 80 80" version="1.1" xmlns="http://www.w3.org/2000/svg" xmlns:xlink="http://www.w3.org/1999/xlink">
    <!-- Generator: sketchtool 52.2 (67145) - http://www.bohemiancoding.com/sketch -->
    <title>366B536B-A6A4-47B7-AF01-B4EA6E1592DB</title>
    <desc>Created with sketchtool.</desc>
    <g id="Telas" stroke="none" stroke-width="1" fill="none" fill-rule="evenodd">
        <g id="SME-Perfil-sem-coleções" transform="translate(-148.000000, -322.000000)">
            <g id="ilustra-" transform="translate(148.000000, 322.000000)">
                <rect id="Rectangle-11" fill="#4DD1DB" x="0" y="0" width="80" height="80" rx="4"></rect>
                <path d="M67,19 L67,21.4339623 L31,21.4339623 L31,19 L67,19 Z M67,39.2830189 L67,41.7169811 L31,41.7169811 L31,39.2830189 L67,39.2830189 Z M67,59.5660377 L67,62 L31,62 L31,59.5660377 L67,59.5660377 Z" id="filtros-icon" fill="#000000"></path>
                <g id="001-bookmark-white-copy-2" transform="translate(14.000000, 15.000000)" fill="#000000" fill-rule="nonzero" stroke="#000000">
                    <path d="M9.84005464,21.459205 C9.73860656,21.3343843 9.60199454,21.2431034 9.43051913,21.1851986 C9.32131148,21.145152 9.20685792,21.1250936 9.08721311,21.1250936 L9.08721311,21.125 L0.911967213,21.125 C0.792377049,21.125 0.678032787,21.1450584 0.568797814,21.1851049 C0.397213115,21.242963 0.260655738,21.3343609 0.159262295,21.4591114 C0.0578961749,21.5838619 0.00713114754,21.7219066 0.00713114754,21.8734095 L0.00713114754,30.4870229 C0.00713114754,30.6385725 0.0578961749,30.7765705 0.159262295,30.901438 C0.260655738,31.0261651 0.397213115,31.1175396 0.568797814,31.1753742 C0.677923497,31.2154208 0.792377049,31.2354324 0.911967213,31.2354324 C1.15647541,31.2354324 1.37218579,31.1618927 1.55945355,31.0150008 L4.99961749,28.1815023 L8.43978142,31.015071 C8.6218306,31.1573989 8.83765027,31.2286916 9.08718579,31.2286916 C9.21724044,31.2286916 9.33166667,31.2109972 9.4304918,31.1753508 C9.60196721,31.1175162 9.73857923,31.0261417 9.84002732,30.9012508 C9.94139344,30.7765471 9.99204918,30.6385257 9.99204918,30.4869995 L9.99204918,21.8735031 C9.9920765,21.7220003 9.94131148,21.5839555 9.84005464,21.459205 Z M8.99360656,30.2797451 L5.6939071,27.566714 L4.99961749,26.9988066 L4.30538251,27.566714 L1.00571038,30.2797451 L1.00571038,21.9804421 L8.99360656,21.9804421 L8.99360656,30.2797451 Z" id="Shape"></path>
                    <path d="M9.84005464,41.771705 C9.73860656,41.6468843 9.60199454,41.5556034 9.43051913,41.4976986 C9.32131148,41.457652 9.20685792,41.4375936 9.08721311,41.4375936 L9.08721311,41.4375 L0.911967213,41.4375 C0.792377049,41.4375 0.678032787,41.4575584 0.568797814,41.4976049 C0.397213115,41.555463 0.260655738,41.6468609 0.159262295,41.7716114 C0.0578961749,41.8963619 0.00713114754,42.0344066 0.00713114754,42.1859095 L0.00713114754,50.7995229 C0.00713114754,50.9510725 0.0578961749,51.0890705 0.159262295,51.213938 C0.260655738,51.3386651 0.397213115,51.4300396 0.568797814,51.4878742 C0.677923497,51.5279208 0.792377049,51.5479324 0.911967213,51.5479324 C1.15647541,51.5479324 1.37218579,51.4743927 1.55945355,51.3275008 L4.99961749,48.4940023 L8.43978142,51.327571 C8.6218306,51.4698989 8.83765027,51.5411916 9.08718579,51.5411916 C9.21724044,51.5411916 9.33166667,51.5234972 9.4304918,51.4878508 C9.60196721,51.4300162 9.73857923,51.3386417 9.84002732,51.2137508 C9.94139344,51.0890471 9.99204918,50.9510257 9.99204918,50.7994995 L9.99204918,42.1860031 C9.9920765,42.0345003 9.94131148,41.8964555 9.84005464,41.771705 Z M8.99360656,50.5922451 L5.6939071,47.879214 L4.99961749,47.3113066 L4.30538251,47.879214 L1.00571038,50.5922451 L1.00571038,42.2929421 L8.99360656,42.2929421 L8.99360656,50.5922451 Z" id="Shape"></path>
                    <path d="M9.84005464,0.33420499 C9.73860656,0.209384259 9.60199454,0.118103395 9.43051913,0.0601985597 C9.32131148,0.0201520062 9.20685792,9.36213992e-05 9.08721311,9.36213992e-05 L9.08721311,0 L0.911967213,0 C0.792377049,0 0.678032787,0.0200583848 0.568797814,0.0601049383 C0.397213115,0.117962963 0.260655738,0.209360854 0.159262295,0.334111368 C0.0578961749,0.458861883 0.00713114754,0.596906636 0.00713114754,0.748409465 L0.00713114754,9.36202289 C0.00713114754,9.51357253 0.0578961749,9.65157047 0.159262295,9.77643801 C0.260655738,9.90116512 0.397213115,9.99253961 0.568797814,10.0503742 C0.677923497,10.0904208 0.792377049,10.1104324 0.911967213,10.1104324 C1.15647541,10.1104324 1.37218579,10.0368927 1.55945355,9.89000077 L4.99961749,7.05650231 L8.43978142,9.89007099 C8.6218306,10.0323989 8.83765027,10.1036916 9.08718579,10.1036916 C9.21724044,10.1036916 9.33166667,10.0859972 9.4304918,10.0503508 C9.60196721,9.9925162 9.73857923,9.90114172 9.84002732,9.77625077 C9.94139344,9.65154707 9.99204918,9.51352572 9.99204918,9.36199949 L9.99204918,0.748503086 C9.9920765,0.597000257 9.94131148,0.458955504 9.84005464,0.33420499 Z M8.99360656,9.15474511 L5.6939071,6.44171399 L4.99961749,5.87380658 L4.30538251,6.44171399 L1.00571038,9.15474511 L1.00571038,0.85544213 L8.99360656,0.85544213 L8.99360656,9.15474511 Z" id="Shape"></path>
                </g>
            </g>
        </g>
    </g>
</svg>