<?xml version="1.0" encoding="UTF-8"?>
<svg width="13px" height="16px" viewBox="0 0 13 16" version="1.1" xmlns="http://www.w3.org/2000/svg" xmlns:xlink="http://www.w3.org/1999/xlink">
    <!-- Generator: sketchtool 52.3 (67297) - http://www.bohemiancoding.com/sketch -->
    <title>83D726AA-D519-488F-A2F6-78A870DF8C00</title>
    <desc>Created with sketchtool.</desc>
    <g id="Telas" stroke="none" stroke-width="1" fill="none" fill-rule="evenodd">
        <g id="SME-Colecao" transform="translate(-337.000000, -442.000000)">
            <g id="Group" transform="translate(15.000000, 171.000000)">
                <g id="card-/-colecao-sequencia-copy" transform="translate(0.000000, 244.000000)">
                    <g id="card-fechado-copy-2">
                        <g id="detalhe-fechado">
                            <g id="mais-icon-copy" transform="translate(311.000000, 18.000000)">
                                <g id="botão-/-salvar-/-ativo" transform="translate(10.000000, 10.000000)"></g>
                                <g id="rubbish-bin" transform="translate(11.000000, 9.000000)" fill="#6A6A6A">
                                    <path d="M11.547871,1.88219871 L9.41359484,1.88219871 L9.41359484,0.495298065 C9.41359484,0.216134194 9.18841806,0 8.90927484,0 C8.88218839,0 8.86412387,0.00904258065 8.85530839,0.0180645161 C8.84626581,0.00904258065 8.82820129,0 8.81917935,0 L3.80308645,0 L3.76716387,0 L3.73103484,0 C3.45189161,0 3.23575742,0.216134194 3.23575742,0.495298065 L3.23575742,1.88221935 L1.09245935,1.88221935 C0.479979355,1.88221935 0.00274580645,2.3594529 0.00274580645,2.9719329 L0.00274580645,3.76443871 L0.00274580645,4.75501419 L0.948356129,4.75501419 L0.948356129,14.9041755 C0.948356129,15.5166761 1.41656774,15.9848671 2.02904774,15.9848671 L10.6113032,15.9848671 C11.2237832,15.9848671 11.7009961,15.5166761 11.7009961,14.9041755 L11.7009961,4.75501419 L12.6375845,4.75501419 L12.6375845,3.76443871 L12.6375845,2.9719329 C12.6375845,2.3594529 12.1601652,1.88219871 11.547871,1.88219871 Z M4.2263329,0.990575484 L8.41399742,0.990575484 L8.41399742,1.88219871 L4.2263329,1.88219871 L4.2263329,0.990575484 Z M10.7013987,14.9041961 C10.7013987,14.967391 10.6743123,14.994271 10.6113032,14.994271 L2.02904774,14.994271 C1.96603871,14.994271 1.93895226,14.9673703 1.93895226,14.9041961 L1.93895226,4.75499355 L10.7013987,4.75499355 L10.7013987,14.9041961 Z M11.6379871,3.76441806 L1.00234323,3.76441806 L1.00234323,2.97191226 C1.00234323,2.90888258 1.02942968,2.87277419 1.09243871,2.87277419 L11.547871,2.87277419 C11.6109006,2.87277419 11.6379871,2.90888258 11.6379871,2.97191226 L11.6379871,3.76441806 Z" id="Shape" fill-rule="nonzero"></path>
                                    <rect id="Rectangle" x="8.13483355" y="5.91675871" width="1" height="8.19493161"></rect>
                                    <rect id="Rectangle" x="5.82938839" y="5.91675871" width="1" height="8.19493161"></rect>
                                    <rect id="Rectangle" x="3.52392258" y="5.91675871" width="1" height="8.19493161"></rect>
                                </g>
                            </g>
                        </g>
                    </g>
                </g>
            </g>
        </g>
    </g>
</svg>