<?xml version="1.0" encoding="UTF-8"?>
<svg width="77px" height="80px" viewBox="0 0 77 80" version="1.1" xmlns="http://www.w3.org/2000/svg" xmlns:xlink="http://www.w3.org/1999/xlink">
    <!-- Generator: sketchtool 52.3 (67297) - http://www.bohemiancoding.com/sketch -->
    <title>0308E408-790D-4E68-94A7-39A881882DC1</title>
    <desc>Created with sketchtool.</desc>
    <g id="Telas" stroke="none" stroke-width="1" fill="none" fill-rule="evenodd">
        <g id="SME-Colecao-Sem-sequencias" transform="translate(-149.000000, -252.000000)">
            <g id="ilustra-" transform="translate(149.000000, 252.000000)">
                <rect id="Rectangle-11" fill="#4DD1DB" x="0" y="2" width="77" height="78" rx="4"></rect>
                <path d="M65.9892492,0.783218249 C65.7549011,0.49069756 65.4393234,0.276778436 65.0432103,0.14107692 C64.7909375,0.0472267604 64.5265464,0.00021940423 64.2501635,0.00021940423 L64.2501635,0 L45.3651093,0 C45.0888525,0 44.824714,0.0470073562 44.572378,0.140857515 C44.1760124,0.276449329 43.8605609,0.490642708 43.6263392,0.782998844 C43.3921805,1.07535498 43.2749118,1.39886652 43.2749118,1.75391741 L43.2749118,21.9401487 C43.2749118,22.2953093 43.3921805,22.6187111 43.6263392,22.9113415 C43.8605609,23.2036428 44.1760124,23.4177813 44.572378,23.5533183 C44.8244615,23.6471685 45.0888525,23.6940661 45.3651093,23.6940661 C45.9299303,23.6940661 46.4282275,23.5217241 46.8608214,23.1774789 L54.8076995,16.5371001 L62.7545776,23.1776434 C63.1751164,23.5111927 63.6736661,23.678269 64.2501004,23.678269 C64.5505303,23.678269 64.8148582,23.6368016 65.0431472,23.5532635 C65.4392603,23.4177265 65.754838,23.203588 65.989186,22.9109027 C66.2233447,22.6186563 66.3403609,22.2951996 66.3403609,21.9400939 L66.3403609,1.75413682 C66.340424,1.39908592 66.2231554,1.07557438 65.9892492,0.783218249 Z M64.0339296,21.4543877 L56.4115286,15.0963274 L54.8076995,13.7654214 L53.2039966,15.0963274 L45.5816587,21.4543877 L45.5816587,2.0047513 L64.0339296,2.0047513 L64.0339296,21.4543877 Z" id="Shape" fill="#000000" fill-rule="nonzero"></path>
            </g>
        </g>
    </g>
</svg>