<svg id="Layer_1" data-name="Layer 1" xmlns="http://www.w3.org/2000/svg" xmlns:xlink="http://www.w3.org/1999/xlink" viewBox="0 0 382 440"><defs><style>.cls-1,.cls-2{fill:none;}.cls-1{clip-rule:evenodd;}.cls-3{clip-path:url(#clip-path);}.cls-4{clip-path:url(#clip-path-2);}.cls-5{fill:#fff;}.cls-6{clip-path:url(#clip-path-3);}.cls-7{fill:#ebebed;}.cls-8{clip-path:url(#clip-path-5);}.cls-9{clip-path:url(#clip-path-7);}.cls-10{clip-path:url(#clip-path-9);}.cls-11{clip-path:url(#clip-path-11);}.cls-12{clip-path:url(#clip-path-13);}.cls-13{clip-path:url(#clip-path-15);}.cls-14{clip-path:url(#clip-path-17);}.cls-15{clip-path:url(#clip-path-19);}.cls-16{fill:#ffa900;}.cls-17{clip-path:url(#clip-path-21);}.cls-18{isolation:isolate;}.cls-19{clip-path:url(#clip-path-23);}.cls-20{clip-path:url(#clip-path-24);}.cls-21{clip-path:url(#clip-path-25);}.cls-22{clip-path:url(#clip-path-26);}.cls-23{clip-path:url(#clip-path-28);}.cls-24{clip-path:url(#clip-path-30);}.cls-25{fill:#00b576;}.cls-26{clip-path:url(#clip-path-32);}.cls-27{clip-path:url(#clip-path-34);}.cls-28{fill:#f5f5f7;}.cls-29{clip-path:url(#clip-path-36);}.cls-30{clip-path:url(#clip-path-38);}.cls-31{clip-path:url(#clip-path-40);}.cls-32{clip-path:url(#clip-path-42);}.cls-33{clip-path:url(#clip-path-44);}.cls-34{clip-path:url(#clip-path-46);}.cls-35{clip-path:url(#clip-path-48);}.cls-36{clip-path:url(#clip-path-50);}.cls-37{clip-path:url(#clip-path-52);}.cls-38{clip-path:url(#clip-path-54);}.cls-39{clip-path:url(#clip-path-55);}.cls-40{clip-path:url(#clip-path-57);}.cls-41{clip-path:url(#clip-path-59);}.cls-42{clip-path:url(#clip-path-61);}.cls-43{clip-path:url(#clip-path-63);}.cls-44{fill:#7c78ff;}.cls-45{clip-path:url(#clip-path-65);}.cls-46{clip-path:url(#clip-path-67);}.cls-47{clip-path:url(#clip-path-69);}.cls-48{clip-path:url(#clip-path-71);}.cls-49{clip-path:url(#clip-path-73);}.cls-50{clip-path:url(#clip-path-75);}.cls-51{clip-path:url(#clip-path-77);}.cls-52{clip-path:url(#clip-path-79);}.cls-53{clip-path:url(#clip-path-81);}.cls-54{clip-path:url(#clip-path-82);}.cls-55{fill:#736ffe;}.cls-56{clip-path:url(#clip-path-84);}.cls-57{clip-path:url(#clip-path-86);}.cls-58{clip-path:url(#clip-path-88);}.cls-59{clip-path:url(#clip-path-90);}.cls-60{fill:#b1c65a;}.cls-61{clip-path:url(#clip-path-92);}.cls-62{clip-path:url(#clip-path-94);}.cls-63{clip-path:url(#clip-path-96);}.cls-64{clip-path:url(#clip-path-98);}.cls-65{clip-path:url(#clip-path-100);}.cls-66{clip-path:url(#clip-path-102);}.cls-67{clip-path:url(#clip-path-104);}.cls-68{clip-path:url(#clip-path-106);}.cls-69{clip-path:url(#clip-path-108);}.cls-70{clip-path:url(#clip-path-110);}.cls-71{clip-path:url(#clip-path-112);}.cls-72{clip-path:url(#clip-path-114);}.cls-73{clip-path:url(#clip-path-116);}.cls-74{clip-path:url(#clip-path-118);}.cls-75{clip-path:url(#clip-path-120);}.cls-76{clip-path:url(#clip-path-122);}.cls-77{clip-path:url(#clip-path-124);}.cls-78{clip-path:url(#clip-path-126);}.cls-79{clip-path:url(#clip-path-128);}.cls-80{clip-path:url(#clip-path-130);}.cls-81{clip-path:url(#clip-path-132);}.cls-82{clip-path:url(#clip-path-134);}.cls-83{clip-path:url(#clip-path-136);}.cls-84{clip-path:url(#clip-path-138);}.cls-85{clip-path:url(#clip-path-140);}.cls-86{clip-path:url(#clip-path-142);}.cls-87{clip-path:url(#clip-path-144);}.cls-88{clip-path:url(#clip-path-146);}.cls-89{clip-path:url(#clip-path-148);}.cls-90{clip-path:url(#clip-path-150);}.cls-91{fill:#ddd;}.cls-92{clip-path:url(#clip-path-152);}.cls-93{clip-path:url(#clip-path-154);}.cls-94{clip-path:url(#clip-path-156);}.cls-95{clip-path:url(#clip-path-158);}.cls-96{clip-path:url(#clip-path-159);}.cls-97{clip-path:url(#clip-path-160);}.cls-98{clip-path:url(#clip-path-161);}.cls-99{clip-path:url(#clip-path-163);}.cls-100{clip-path:url(#clip-path-164);}.cls-101{clip-path:url(#clip-path-165);}.cls-102{clip-path:url(#clip-path-166);}.cls-103{clip-path:url(#clip-path-168);}.cls-104{fill:#002168;}.cls-105{clip-path:url(#clip-path-170);}.cls-106{fill:#e4e4e4;}.cls-107{clip-path:url(#clip-path-172);}.cls-108{clip-path:url(#clip-path-174);}.cls-109{clip-path:url(#clip-path-176);}.cls-110{clip-path:url(#clip-path-178);}.cls-111{clip-path:url(#clip-path-180);}.cls-112{clip-path:url(#clip-path-182);}.cls-113{clip-path:url(#clip-path-184);}.cls-114{fill:#00a66c;}.cls-115{clip-path:url(#clip-path-186);}.cls-116{fill:#47e8c8;}.cls-117{clip-path:url(#clip-path-188);}.cls-118{fill:#7a76fc;}.cls-119{clip-path:url(#clip-path-190);}.cls-120{clip-path:url(#clip-path-192);}.cls-121{clip-path:url(#clip-path-194);}.cls-122{clip-path:url(#clip-path-196);}</style><clipPath id="clip-path"><path class="cls-1" d="M342.67,430.87c-7.4,0-7.4-60.87,0-60.87H121.79c-7.4,0-7.4,60.87,0,60.87Z"/></clipPath><clipPath id="clip-path-2"><rect class="cls-2" x="-624.5" y="-110.5" width="1280" height="3148"/></clipPath><clipPath id="clip-path-3"><path class="cls-1" d="M117.49,380.45H338.75a1,1,0,0,0,0-2H117.49a1,1,0,0,0,0,2"/></clipPath><clipPath id="clip-path-5"><path class="cls-1" d="M117.49,392.43H338.75a1,1,0,0,0,0-2H117.49a1,1,0,0,0,0,2"/></clipPath><clipPath id="clip-path-7"><path class="cls-1" d="M117.49,410.41H338.75a1,1,0,0,0,0-2H117.49a1,1,0,0,0,0,2"/></clipPath><clipPath id="clip-path-9"><path class="cls-1" d="M117.49,422.4H338.75a1,1,0,0,0,0-2H117.49a1,1,0,0,0,0,2"/></clipPath><clipPath id="clip-path-11"><path class="cls-1" d="M117.49,386.44H338.75a1,1,0,0,0,0-2H117.49a1,1,0,0,0,0,2"/></clipPath><clipPath id="clip-path-13"><path class="cls-1" d="M117.49,398.43H338.75a1,1,0,0,0,0-2H117.49a1,1,0,0,0,0,2"/></clipPath><clipPath id="clip-path-15"><path class="cls-1" d="M117.49,404.42H338.75a1,1,0,0,0,0-2H117.49a1,1,0,0,0,0,2"/></clipPath><clipPath id="clip-path-17"><path class="cls-1" d="M117.49,416.4H338.75a1,1,0,0,0,0-2H117.49a1,1,0,0,0,0,2"/></clipPath><clipPath id="clip-path-19"><path class="cls-1" d="M121.8,366.06H14c-2.33,0-9.39,0-9.39,34.37S11.63,434.8,14,434.8H121.8a3.88,3.88,0,0,0,3.83-3.94,4,4,0,0,0-2.58-3.73c-4-6.53-4-46.86,0-53.4a3.94,3.94,0,0,0,2.58-3.73A3.9,3.9,0,0,0,121.8,366.06Z"/></clipPath><clipPath id="clip-path-21"><rect class="cls-2" x="112.42" y="366.06" width="234.08" height="68.76"/></clipPath><clipPath id="clip-path-23"><rect class="cls-2" x="111.5" y="365.5" width="236" height="70"/></clipPath><clipPath id="clip-path-24"><path class="cls-1" d="M121.8,434.81H342.67a3.95,3.95,0,0,0,0-7.89H122.92c-3.84-7.08-3.84-45.89,0-53H342.67a3.95,3.95,0,0,0,0-7.89H121.8c-2.32,0-9.38,0-9.38,34.38S119.48,434.81,121.8,434.81Z"/></clipPath><clipPath id="clip-path-25"><rect class="cls-2" x="111.5" y="365.5" width="235" height="70"/></clipPath><clipPath id="clip-path-26"><path class="cls-1" d="M148.85,386.13v26.64a1.43,1.43,0,0,1-1.87,1.39L140.81,412l-6.17,2.15a1.43,1.43,0,0,1-1.87-1.39V386.13a1.26,1.26,0,0,1,1.24-1.28h13.6a1.26,1.26,0,0,1,1.24,1.28"/></clipPath><clipPath id="clip-path-28"><path class="cls-1" d="M147.43,415.22a2.3,2.3,0,0,0,1.39-.46,2.48,2.48,0,0,0,1-2V386.13a2.24,2.24,0,0,0-2.2-2.27H134a2.24,2.24,0,0,0-2.2,2.27v26.64a2.48,2.48,0,0,0,1,2,2.3,2.3,0,0,0,2.15.33l5.86-2,5.86,2a2.21,2.21,0,0,0,.76.13M140.81,411a1.06,1.06,0,0,0-.31.05l-6.17,2.14a.43.43,0,0,1-.42-.06.46.46,0,0,1-.19-.39V386.13a.3.3,0,0,1,.29-.3h13.6a.3.3,0,0,1,.28.3v26.64a.46.46,0,0,1-.19.39.43.43,0,0,1-.42.06l-6.17-2.14a1,1,0,0,0-.3-.05"/></clipPath><clipPath id="clip-path-30"><path class="cls-1" d="M149.77,385.41v26.65a1.43,1.43,0,0,1-1.88,1.38l-6.17-2.14-6.17,2.14a1.42,1.42,0,0,1-1.87-1.38V385.41a1.26,1.26,0,0,1,1.25-1.28h13.59a1.26,1.26,0,0,1,1.25,1.28"/></clipPath><clipPath id="clip-path-32"><path class="cls-1" d="M318,317.61c-7.42,0-7.42-63.37,0-63.37H180.31c-7.42,0-7.42,63.37,0,63.37Z"/></clipPath><clipPath id="clip-path-34"><path class="cls-1" d="M176,265.11H314.08a1,1,0,0,0,0-2.05H176a1,1,0,0,0,0,2.05"/></clipPath><clipPath id="clip-path-36"><path class="cls-1" d="M176,277.59H314.08a1,1,0,0,0,0-2H176a1,1,0,0,0,0,2"/></clipPath><clipPath id="clip-path-38"><path class="cls-1" d="M176,296.31H314.08a1,1,0,0,0,0-2.05H176a1,1,0,0,0,0,2.05"/></clipPath><clipPath id="clip-path-40"><path class="cls-1" d="M176,308.79H314.08a1,1,0,0,0,0-2.05H176a1,1,0,0,0,0,2.05"/></clipPath><clipPath id="clip-path-42"><path class="cls-1" d="M176,271.35H314.08a1,1,0,0,0,0-2.05H176a1,1,0,0,0,0,2.05"/></clipPath><clipPath id="clip-path-44"><path class="cls-1" d="M176,283.83H314.08a1,1,0,0,0,0-2.05H176a1,1,0,0,0,0,2.05"/></clipPath><clipPath id="clip-path-46"><path class="cls-1" d="M176,290.07H314.08a1,1,0,0,0,0-2.05H176a1,1,0,0,0,0,2.05"/></clipPath><clipPath id="clip-path-48"><path class="cls-1" d="M176,302.55H314.08a1,1,0,0,0,0-2.05H176a1,1,0,0,0,0,2.05"/></clipPath><clipPath id="clip-path-50"><path class="cls-1" d="M27.91,250.13H180.32a4,4,0,0,1,3.83,4.11,4.11,4.11,0,0,1-2.59,3.89c-4,6.79-4,48.79,0,55.59a4.11,4.11,0,0,1,2.59,3.88,4,4,0,0,1-3.83,4.11H27.91c-2.34,0-9.41,0-9.41-35.79S25.57,250.13,27.91,250.13Z"/></clipPath><clipPath id="clip-path-52"><rect class="cls-2" x="170.91" y="250.13" width="150.93" height="71.59"/></clipPath><clipPath id="clip-path-54"><rect class="cls-2" x="170.5" y="249.5" width="152" height="73"/></clipPath><clipPath id="clip-path-55"><path class="cls-1" d="M180.31,321.72H318a4.12,4.12,0,0,0,0-8.22H181.43c-3.84-7.37-3.84-47.78,0-55.15H318a4.12,4.12,0,0,0,0-8.22H180.31c-2.33,0-9.4,0-9.4,35.8S178,321.72,180.31,321.72Z"/></clipPath><clipPath id="clip-path-57"><path class="cls-1" d="M207.41,271v27.74a1.43,1.43,0,0,1-1.87,1.44L199.36,298l-6.18,2.23a1.44,1.44,0,0,1-1.88-1.44V271a1.3,1.3,0,0,1,1.25-1.34h13.62a1.29,1.29,0,0,1,1.24,1.34"/></clipPath><clipPath id="clip-path-59"><path class="cls-1" d="M206,301.32a2.25,2.25,0,0,0,1.39-.48,2.62,2.62,0,0,0,1-2.07V271a2.3,2.3,0,0,0-2.2-2.37H192.55a2.3,2.3,0,0,0-2.21,2.37v27.74a2.62,2.62,0,0,0,1,2.07,2.26,2.26,0,0,0,2.15.35l5.88-2.13,5.87,2.13a2.21,2.21,0,0,0,.76.13M199.36,297a.81.81,0,0,0-.31.06l-6.18,2.23a.4.4,0,0,1-.42-.07.49.49,0,0,1-.19-.4V271a.3.3,0,0,1,.29-.31h13.62a.29.29,0,0,1,.28.31v27.74a.49.49,0,0,1-.19.4.39.39,0,0,1-.41.07L199.66,297a.8.8,0,0,0-.3-.06"/></clipPath><clipPath id="clip-path-61"><path class="cls-1" d="M208.33,270.28V298a1.44,1.44,0,0,1-1.88,1.44l-6.18-2.23-6.18,2.23a1.44,1.44,0,0,1-1.88-1.44V270.28a1.29,1.29,0,0,1,1.25-1.33h13.62a1.29,1.29,0,0,1,1.25,1.33"/></clipPath><clipPath id="clip-path-63"><path class="cls-1" d="M83,358.32V327.06a3.17,3.17,0,0,1,0-6.33H336.77c9.16,0,13.32,11.39,13.32,22s-4.16,22-13.32,22H83a3.17,3.17,0,0,1,0-6.33Z"/></clipPath><clipPath id="clip-path-65"><path class="cls-1" d="M7.54,361.49c13.7,0,13.7-37.59,0-37.59H183.18c13.7,0,13.7,37.59,0,37.59Z"/></clipPath><clipPath id="clip-path-67"><path class="cls-1" d="M186.61,336.27H16.36a.79.79,0,0,1,0-1.58H186.61a.79.79,0,0,1,0,1.58"/></clipPath><clipPath id="clip-path-69"><path class="cls-1" d="M186.61,350.69H16.36a.79.79,0,0,1,0-1.58H186.61a.79.79,0,0,1,0,1.58"/></clipPath><clipPath id="clip-path-71"><path class="cls-1" d="M186.61,331.47H15.28a.8.8,0,0,1,0-1.59H186.61a.8.8,0,0,1,0,1.59"/></clipPath><clipPath id="clip-path-73"><path class="cls-1" d="M186.61,341.08H17.44a.79.79,0,0,1,0-1.58H186.61a.79.79,0,0,1,0,1.58"/></clipPath><clipPath id="clip-path-75"><path class="cls-1" d="M186.61,345.89H17.44a.8.8,0,0,1,0-1.59H186.61a.8.8,0,0,1,0,1.59"/></clipPath><clipPath id="clip-path-77"><path class="cls-1" d="M186.61,355.5H15.28a.8.8,0,0,1,0-1.59H186.61a.8.8,0,0,1,0,1.59"/></clipPath><clipPath id="clip-path-79"><rect class="cls-2" x="4.5" y="320.73" width="192" height="43.92"/></clipPath><clipPath id="clip-path-81"><rect class="cls-2" x="4.5" y="320.5" width="193" height="45"/></clipPath><clipPath id="clip-path-82"><path class="cls-1" d="M183.18,364.65H7.54a3.17,3.17,0,0,1,0-6.33H183.18c4.7,0,7.23-8.05,7.23-15.63s-2.53-15.63-7.23-15.63H7.54a3.17,3.17,0,0,1,0-6.33H183.18c9.15,0,13.32,11.39,13.32,22s-4.17,22-13.32,22"/></clipPath><clipPath id="clip-path-84"><path class="cls-1" d="M163.19,332.39v12.92a1.14,1.14,0,0,0,1.49,1.11l4.9-1.72,4.91,1.72a1.14,1.14,0,0,0,1.49-1.11V332.39a1,1,0,0,0-1-1H164.18a1,1,0,0,0-1,1"/></clipPath><clipPath id="clip-path-86"><path class="cls-1" d="M164.32,347.27a1.89,1.89,0,0,1-1.11-.36,2,2,0,0,1-.78-1.6V332.39a1.78,1.78,0,0,1,1.75-1.82H175a1.79,1.79,0,0,1,1.75,1.82v12.92a2,2,0,0,1-.79,1.6,1.86,1.86,0,0,1-1.71.26l-4.66-1.63-4.66,1.63A1.8,1.8,0,0,1,164.32,347.27Zm-.14-15.12a.23.23,0,0,0-.23.24v12.92a.39.39,0,0,0,.15.31.34.34,0,0,0,.33.05l4.91-1.72a.69.69,0,0,1,.49,0l4.9,1.72a.36.36,0,0,0,.33-.05.37.37,0,0,0,.16-.31V332.39a.24.24,0,0,0-.23-.24Z"/></clipPath><clipPath id="clip-path-88"><path class="cls-1" d="M163.59,346.7a1.84,1.84,0,0,1-1.1-.37,2,2,0,0,1-.79-1.6V331.81a1.79,1.79,0,0,1,1.75-1.82h10.81a1.79,1.79,0,0,1,1.75,1.82v12.92a2,2,0,0,1-.79,1.6,1.82,1.82,0,0,1-1.7.27L168.86,345l-4.67,1.64A1.76,1.76,0,0,1,163.59,346.7Z"/></clipPath><clipPath id="clip-path-90"><path class="cls-1" d="M59.38,248.18h68.94c9.45-5.22,16.49-17,16.52-32.38L177.52,97.94H374.28L341.6,215.8c0,15.37-7.07,27.16-16.53,32.38h-112"/></clipPath><clipPath id="clip-path-92"><path class="cls-1" d="M325.07,252.08h-112a3.91,3.91,0,0,1,0-7.81H324.05c8.45-5.14,13.67-15.94,13.7-28.48a3.74,3.74,0,0,1,.14-1L369.2,101.85H180.44l-31.75,114.5c-.19,15.57-7.26,29.05-18.54,35.26a3.81,3.81,0,0,1-1.84.47H59.38a3.91,3.91,0,0,1,0-7.81h67.91c8.45-5.14,13.68-15.94,13.7-28.48a4.15,4.15,0,0,1,.14-1L173.82,96.88a3.86,3.86,0,0,1,3.7-2.85H374.28a3.85,3.85,0,0,1,3.07,1.55A3.94,3.94,0,0,1,378,99L345.44,216.35c-.18,15.57-7.25,29.05-18.53,35.26a3.84,3.84,0,0,1-1.84.47"/></clipPath><clipPath id="clip-path-94"><path class="cls-1" d="M144.31,232.25c-5.21-5.84,30.46-131.88,40.87-131.88H371.61L335.86,231.75Z"/></clipPath><clipPath id="clip-path-96"><path class="cls-1" d="M159.7,210.61h-.13a1,1,0,0,1-.83-1.1c4.1-30.32,14-63.21,30.21-100.55a1,1,0,0,1,1.27-.5,1,1,0,0,1,.49,1.29c-16.16,37.17-26,69.89-30.06,100a1,1,0,0,1-1,.85"/></clipPath><clipPath id="clip-path-98"><path class="cls-1" d="M165.65,210.61h-.13a1,1,0,0,1-.82-1.1c4.09-30.48,14-63.37,30.2-100.55a1,1,0,0,1,1.27-.5,1,1,0,0,1,.49,1.29c-16.16,37-26,69.73-30,100a1,1,0,0,1-1,.85"/></clipPath><clipPath id="clip-path-100"><path class="cls-1" d="M171.61,210.61h-.13a1,1,0,0,1-.83-1.1c4.08-30.63,14-63.52,30.21-100.56a1,1,0,0,1,1.27-.49,1,1,0,0,1,.49,1.29c-16.18,36.86-26,69.58-30.06,100a1,1,0,0,1-.95.85"/></clipPath><clipPath id="clip-path-102"><path class="cls-1" d="M177.56,210.61h-.13a1,1,0,0,1-.82-1.1c4-30.35,14.17-64.18,30.2-100.56a1,1,0,0,1,1.27-.49,1,1,0,0,1,.49,1.29c-16,36.21-26.07,69.86-30.06,100a1,1,0,0,1-.95.85"/></clipPath><clipPath id="clip-path-104"><path class="cls-1" d="M183.52,210.61h-.13a1,1,0,0,1-.83-1.1c4-30.5,14.16-64.33,30.21-100.56a1,1,0,0,1,1.27-.49,1,1,0,0,1,.48,1.29c-16,36.06-26.07,69.71-30.05,100a1,1,0,0,1-.95.85"/></clipPath><clipPath id="clip-path-106"><path class="cls-1" d="M189.47,210.61h-.13a1,1,0,0,1-.83-1.1c4-30.64,14.16-64.47,30.21-100.56a1,1,0,0,1,1.28-.49,1,1,0,0,1,.48,1.29c-16,35.92-26.09,69.57-30.06,100a1,1,0,0,1-.95.85"/></clipPath><clipPath id="clip-path-108"><path class="cls-1" d="M195.42,210.61h-.12a1,1,0,0,1-.83-1.1c4-30.78,14.14-64.62,30.21-100.56a1,1,0,0,1,1.27-.49,1,1,0,0,1,.48,1.3c-16,35.76-26.1,69.41-30.05,100a1,1,0,0,1-1,.85"/></clipPath><clipPath id="clip-path-110"><path class="cls-1" d="M201.38,210.61h-.13a1,1,0,0,1-.83-1.09c4-30.94,14.14-64.77,30.21-100.57a1,1,0,0,1,1.28-.49,1,1,0,0,1,.47,1.3c-16,35.62-26.11,69.27-30,100a1,1,0,0,1-1,.85"/></clipPath><clipPath id="clip-path-112"><path class="cls-1" d="M207.33,210.61h-.12a1,1,0,0,1-.83-1.09c4-31.07,14.12-64.91,30.21-100.58a1,1,0,0,1,1.27-.48,1,1,0,0,1,.48,1.3c-16,35.49-26.12,69.14-30.05,100a1,1,0,0,1-1,.85"/></clipPath><clipPath id="clip-path-114"><path class="cls-1" d="M213.29,210.61h-.13a1,1,0,0,1-.83-1.09c3-23.57,9.19-47.65,19-73.61a1,1,0,0,1,1.25-.56,1,1,0,0,1,.55,1.26c-9.74,25.81-15.92,49.74-18.88,73.16a1,1,0,0,1-1,.85"/></clipPath><clipPath id="clip-path-116"><path class="cls-1" d="M219.24,210.61h-.12a1,1,0,0,1-.83-1.09c3.93-31.35,14.09-65.19,30.21-100.58a.94.94,0,0,1,1.27-.47,1,1,0,0,1,.48,1.29c-16,35.21-26.15,68.86-30.05,100a1,1,0,0,1-1,.85"/></clipPath><clipPath id="clip-path-118"><path class="cls-1" d="M225.2,210.61h-.12a1,1,0,0,1-.84-1.09c3.92-31.48,14.08-65.32,30.21-100.58a1,1,0,0,1,1.28-.47,1,1,0,0,1,.47,1.29c-16,35.08-26.16,68.73-30,100a1,1,0,0,1-1,.85"/></clipPath><clipPath id="clip-path-120"><path class="cls-1" d="M231.15,210.61H231a1,1,0,0,1-.84-1.09c3.91-31.62,14.08-65.46,30.22-100.58a1,1,0,0,1,1.27-.47,1,1,0,0,1,.47,1.3c-16,34.93-26.16,68.58-30,100a1,1,0,0,1-.95.86"/></clipPath><clipPath id="clip-path-122"><path class="cls-1" d="M237.11,210.61H237a1,1,0,0,1-.84-1.09c3.89-31.75,14.06-65.59,30.21-100.58a1,1,0,0,1,1.28-.47,1,1,0,0,1,.47,1.3c-16.08,34.8-26.18,68.45-30.05,100a1,1,0,0,1-.95.86"/></clipPath><clipPath id="clip-path-124"><path class="cls-1" d="M243.06,210.61h-.12a1,1,0,0,1-.84-1.09c3.88-31.87,14-65.72,30.22-100.58a1,1,0,0,1,1.28-.47,1,1,0,0,1,.46,1.3c-16.09,34.68-26.19,68.32-30.05,100a1,1,0,0,1-.95.86"/></clipPath><clipPath id="clip-path-126"><path class="cls-1" d="M249,210.61h-.12a1,1,0,0,1-.83-1.09c3.86-32,14-65.86,30.21-100.59a1,1,0,0,1,1.28-.46,1,1,0,0,1,.46,1.3c-16.09,34.54-26.2,68.18-30,100a1,1,0,0,1-1,.86"/></clipPath><clipPath id="clip-path-128"><path class="cls-1" d="M255,210.61h-.12a1,1,0,0,1-.84-1.09,305.66,305.66,0,0,1,16-66.23,1,1,0,0,1,1.23-.58,1,1,0,0,1,.58,1.25,303.6,303.6,0,0,0-15.91,65.8,1,1,0,0,1-.95.86"/></clipPath><clipPath id="clip-path-130"><path class="cls-1" d="M260.92,210.61h-.11a1,1,0,0,1-.84-1.09c3.83-32.26,14-66.11,30.21-100.59a1,1,0,0,1,1.29-.46,1,1,0,0,1,.45,1.3c-16.13,34.29-26.23,67.93-30,100a1,1,0,0,1-1,.86"/></clipPath><clipPath id="clip-path-132"><path class="cls-1" d="M266.88,210.61h-.12a1,1,0,0,1-.84-1.09c3.82-32.4,14-66.24,30.22-100.59a1,1,0,0,1,1.28-.46,1,1,0,0,1,.45,1.3c-16.13,34.16-26.24,67.8-30,100a1,1,0,0,1-.95.86"/></clipPath><clipPath id="clip-path-134"><path class="cls-1" d="M272.83,210.61h-.12a1,1,0,0,1-.84-1.08c3.81-32.53,14-66.38,30.22-100.6a1,1,0,0,1,1.29-.46,1,1,0,0,1,.45,1.31c-16.16,34-26.26,67.66-30.05,100a1,1,0,0,1-.95.86"/></clipPath><clipPath id="clip-path-136"><path class="cls-1" d="M278.78,210.61h-.11a1,1,0,0,1-.84-1.08c3.79-32.66,14-66.5,30.22-100.6a1,1,0,0,1,1.28-.46,1,1,0,0,1,.45,1.31c-16.17,33.9-26.27,67.54-30,100a1,1,0,0,1-1,.86"/></clipPath><clipPath id="clip-path-138"><path class="cls-1" d="M284.74,210.61h-.12a1,1,0,0,1-.84-1.08c3.78-32.78,14-66.63,30.22-100.61a1,1,0,1,1,1.73.86c-16.18,33.78-26.28,67.41-30,100a1,1,0,0,1-.95.86"/></clipPath><clipPath id="clip-path-140"><path class="cls-1" d="M290.69,210.61h-.11a1,1,0,0,1-.85-1.08c3.77-32.9,13.94-66.75,30.23-100.61a1,1,0,0,1,1.29-.45,1,1,0,0,1,.44,1.31c-16.2,33.66-26.3,67.29-30,100a1,1,0,0,1-1,.86"/></clipPath><clipPath id="clip-path-142"><path class="cls-1" d="M296.65,210.61h-.12a1,1,0,0,1-.84-1.08c3.75-33,13.91-66.87,30.22-100.61a1,1,0,0,1,1.29-.44,1,1,0,0,1,.44,1.3c-16.21,33.54-26.32,67.17-30,100a1,1,0,0,1-1,.87"/></clipPath><clipPath id="clip-path-144"><path class="cls-1" d="M302.6,210.61h-.11a1,1,0,0,1-.85-1.08c3.73-33.15,13.9-67,30.23-100.61a1,1,0,0,1,1.28-.44,1,1,0,0,1,.44,1.3c-16.22,33.42-26.33,67.05-30,100a1,1,0,0,1-1,.87"/></clipPath><clipPath id="clip-path-146"><path class="cls-1" d="M308.56,210.61h-.11a1,1,0,0,1-.85-1.08c3.71-33.26,13.88-67.12,30.22-100.61a1,1,0,0,1,1.29-.44,1,1,0,0,1,.44,1.3c-16.25,33.3-26.35,66.93-30,100a1,1,0,0,1-.95.87"/></clipPath><clipPath id="clip-path-148"><path class="cls-1" d="M314.51,210.61h-.11a1,1,0,0,1-.85-1.08,283,283,0,0,1,8.58-44.18,1,1,0,0,1,1.18-.68,1,1,0,0,1,.67,1.21,280.14,280.14,0,0,0-8.51,43.87,1,1,0,0,1-1,.87"/></clipPath><clipPath id="clip-path-150"><path class="cls-1" d="M369.56,100.37c-7.87,4.64-19.2,28.26-28.71,61.44C322.62,225.38,323.8,219.4,334,226c9.73,6.34,6.25,1.08,6.25,1.08l32.53-127Z"/></clipPath><clipPath id="clip-path-152"><path class="cls-1" d="M28.54,248.18s9.76-10.36,14.14-19a2.81,2.81,0,0,1,2.84-1.52A583.76,583.76,0,0,0,149.89,230c30.87-2.23,134.22-17.47,180.41-6.9a9.21,9.21,0,0,1,6,13.13c-2.66,5.23-6.52,10.78-11.25,12Z"/></clipPath><clipPath id="clip-path-154"><path class="cls-1" d="M218.15,226.41c-.29,7.86-2.84,18.42-3.68,21.76H325.08c4.73-1.17,8.58-6.72,11.24-11.93a9.23,9.23,0,0,0-6.1-13.16c-25.91-5.91-69.74-3.73-108.7-.26a3.72,3.72,0,0,0-3.37,3.59"/></clipPath><clipPath id="clip-path-156"><rect class="cls-2" x="12.5" y="244.27" width="261.85" height="7.82"/></clipPath><clipPath id="clip-path-158"><rect class="cls-2" x="11.5" y="243.5" width="263" height="9"/></clipPath><clipPath id="clip-path-159"><path class="cls-1" d="M270.5,252.08H16.35a3.91,3.91,0,0,1,0-7.81H270.5a3.91,3.91,0,0,1,0,7.81"/></clipPath><clipPath id="clip-path-160"><rect class="cls-2" x="12.5" y="243.5" width="262" height="9"/></clipPath><clipPath id="clip-path-161"><rect class="cls-2" x="209.26" y="94.03" width="168.87" height="158.05"/></clipPath><clipPath id="clip-path-163"><rect class="cls-2" x="208.5" y="93.5" width="171" height="159"/></clipPath><clipPath id="clip-path-164"><path class="cls-1" d="M325.07,252.08h-112a3.91,3.91,0,0,1,0-7.81H324.05c8.45-5.14,13.67-15.94,13.7-28.48a3.74,3.74,0,0,1,.14-1L370.57,96.88a3.85,3.85,0,0,1,4.75-2.7A3.91,3.91,0,0,1,378,99L345.44,216.35c-.18,15.57-7.25,29.05-18.53,35.26a3.84,3.84,0,0,1-1.84.47"/></clipPath><clipPath id="clip-path-165"><rect class="cls-2" x="208.5" y="93.5" width="170" height="159"/></clipPath><clipPath id="clip-path-166"><path class="cls-1" d="M62.68,312.9q21.9-33.06,29.3-48.74c8.44-17.9,15.23-33.77,17.29-39.78,4.91-14.34-15.85-19-19.85-12.2q-9.11,15.52-36.26,95.87Z"/></clipPath><clipPath id="clip-path-168"><path class="cls-1" d="M96,303.77l24-81.89c5.36-15-27.45-21.71-31.73-14.56-9.71,16.21-30.71,78.67-33.6,83.5Z"/></clipPath><clipPath id="clip-path-170"><path class="cls-1" d="M70,308.9a17.17,17.17,0,0,1,1.78,5.23,41.71,41.71,0,0,1-.18,6.71l-48,4.2q-2.4-6,1.59-6.79t6.63-1.47l21.34-11.72a1,1,0,0,1,1.36.39v0l1.66,3.18a15.47,15.47,0,0,0,6.22,1.19A13.44,13.44,0,0,0,67.23,308h0a2,2,0,0,1,2.71.78Z"/></clipPath><clipPath id="clip-path-172"><path class="cls-1" d="M160.26,294.06c-4.56-10.48-21.61-46.1-31.66-61.44-2.89-4.41-5.71-8.66-8.4-12.62-8-11.78-30.58.74-22.45,11.65C118,258.8,147.94,296,150.41,299.28,153.87,303.87,163.12,300.65,160.26,294.06Z"/></clipPath><clipPath id="clip-path-174"><path class="cls-1" d="M161.7,292.07a19.21,19.21,0,0,1,2.88,5.27,46.23,46.23,0,0,1,1.07,7.11l-48.53,13q-3.6-5.83.35-7.44c2.62-1.06,4.8-2,6.52-2.73l19.73-16.18a1,1,0,0,1,1.41.14l0,0,2.34,3.1a15.8,15.8,0,0,0,6.61.14,13.77,13.77,0,0,0,4.69-2.84,2,2,0,0,1,2.82.27Z"/></clipPath><clipPath id="clip-path-176"><path class="cls-1" d="M133.45,232.77q41.18-3.17,55.18-4.43c26.61-2.4,35.51-16.05,33.72-47.67l-48.27-4.23q-9.83,2-83.12,27.75c-8.83,3.52-8.35,16.23-7.17,20.5q.08.27,36.26,78.14l41.72-22.08-28.66-45C132.41,234,132.52,233,133.45,232.77Z"/></clipPath><clipPath id="clip-path-178"><path class="cls-1" d="M153.33,52.55c1.14-7.06.38-14.41-3.93-20.57-12.42-17.74-35.55,1.7-34.91,14S130,81.71,137.41,79.52c3-.88,7.44-5.79,11-12.51l11.47,27,20.6-12.38Z"/></clipPath><clipPath id="clip-path-180"><path class="cls-1" d="M144.4,55.51c5.52,3.46,11.28,5.1,14.78,3,6.65-4,5.91-15.94,0-25.73-.21-.35-.42-.69-.64-1,10,.72,21.28,7.21,30.59,1.62,12.66-7.61,2-36.79-15.72-26.16-12,7.23-16.87,12.58-20.37,18.3a19.77,19.77,0,0,0-8.73-4.41,7.94,7.94,0,0,0-2.57-.25,11,11,0,0,0-2.58.32,48.7,48.7,0,0,0-13.64,5.32c-1,.53-1.87,1.06-2.75,1.61a9.94,9.94,0,1,0-3.69,14.11,48.91,48.91,0,0,0,10.48-4,21.42,21.42,0,0,0,2.27,5,30.61,30.61,0,0,0,3.4,4.58,4.6,4.6,0,0,1,2-3.36,6,6,0,0,1,8.25,2.17C147.53,50,147.09,53.62,144.4,55.51Z"/></clipPath><clipPath id="clip-path-182"><path class="cls-1" d="M138.16,145.21l-22.47,28.21a77.79,77.79,0,0,0-17,12.8c-.9,1.43-1.76,4.05,3.13,2.33s10.12-3.32,11.26-1.79-1.32,4.39.69,6.33q2,1.93,10.06-15.13l24.65-19Z"/></clipPath><clipPath id="clip-path-184"><path class="cls-1" d="M154.15,83.31c-7.59,32.71-23.77,60.57-49.65,91.95l15.8,10.49c32.14-22.92,48.83-36,50.84-65.55.5-7.41-3.67-29.49-5.33-41.24Z"/></clipPath><clipPath id="clip-path-186"><path class="cls-1" d="M217,170.71l-68.74,13.36q9.43-76.2,4.74-103c-.16-.91,1.2-2.83,2-2.77q8.53.73,17-5.08C193.33,96.41,205.28,127.78,217,170.71Z"/></clipPath><clipPath id="clip-path-188"><path class="cls-2" d="M77.88,206.89,141,187.2a2.33,2.33,0,0,1,2.81,1.26,1.8,1.8,0,0,1-.9,2.39.9.9,0,0,1-.21.08L79.58,210.62a2.33,2.33,0,0,1-2.81-1.25,1.81,1.81,0,0,1,.9-2.4Z"/></clipPath><clipPath id="clip-path-190"><path class="cls-2" d="M60,151.87,82.5,141.55a3,3,0,0,1,4,1.48c0,.05,0,.1.07.16l21,53.65a3,3,0,0,1-1.71,3.89l-.07,0L80.26,210a3,3,0,0,1-3.84-1.8l0-.05-18-52.56A3,3,0,0,1,60,151.87Z"/></clipPath><clipPath id="clip-path-192"><path class="cls-2" d="M59.92,151.86l20.3-9.61a3,3,0,0,1,4,1.43,1.54,1.54,0,0,1,.08.19l20.94,53.64a3,3,0,0,1-1.7,3.88l-.06,0L80.27,210a3,3,0,0,1-3.85-1.78l0-.06-18-52.58A3,3,0,0,1,59.92,151.86Z"/></clipPath><clipPath id="clip-path-194"><path class="cls-1" d="M152.35,156.09l-26.22,24.62c-7.57,3-12.28,9.21-17.14,13-1.1,1.28-2.31,3.74,2.79,2.73s8-2.77,9.94-2.94,5.34-2.16,11.89-7.15l27.11-15.25Z"/></clipPath><clipPath id="clip-path-196"><path class="cls-1" d="M161.16,143.76a190.42,190.42,0,0,1-40,35.74l12.09,14.64a295.73,295.73,0,0,0,34.22-13.37c4.8,13,12.38,20,23.38,17.89l36.6-7.12c-.78-17.16-5.88-36.31-13-54.57a2.36,2.36,0,0,0-.3-.75A283.59,283.59,0,0,0,194.56,96q8.58-.58,11.13-8.52c4.65-14.47.65-21.16-7.49-22s-14,5.33-26.29,7.71l-7.32,1.43C161.46,99.16,160.1,123.34,161.16,143.76Z"/></clipPath></defs><title>TPA</title><g class="cls-3"><g class="cls-4"><rect class="cls-5" x="111.24" y="365" width="236.43" height="70.86"/></g></g><g class="cls-6"><g class="cls-4"><rect class="cls-7" x="111.53" y="373.47" width="233.18" height="11.97"/></g></g><g class="cls-8"><g class="cls-4"><rect class="cls-7" x="111.53" y="385.46" width="233.18" height="11.97"/></g></g><g class="cls-9"><g class="cls-4"><rect class="cls-7" x="111.53" y="403.44" width="233.18" height="11.97"/></g></g><g class="cls-10"><g class="cls-4"><rect class="cls-7" x="111.53" y="415.42" width="233.18" height="11.97"/></g></g><g class="cls-11"><g class="cls-4"><rect class="cls-7" x="111.53" y="379.47" width="233.18" height="11.97"/></g></g><g class="cls-12"><g class="cls-4"><rect class="cls-7" x="111.53" y="391.45" width="233.18" height="11.97"/></g></g><g class="cls-13"><g class="cls-4"><rect class="cls-7" x="111.53" y="397.45" width="233.18" height="11.97"/></g></g><g class="cls-14"><g class="cls-4"><rect class="cls-7" x="111.53" y="409.43" width="233.18" height="11.97"/></g></g><g class="cls-15"><g class="cls-4"><rect class="cls-16" x="-0.43" y="361.06" width="131.06" height="78.75"/></g></g><g class="cls-17"><g class="cls-4"><g class="cls-18"><g class="cls-19"><g class="cls-20"><g class="cls-21"><rect class="cls-16" x="107.42" y="361.06" width="244.08" height="78.76"/></g></g></g></g></g></g><g class="cls-22"><g class="cls-4"><rect class="cls-7" x="127.77" y="379.85" width="26.09" height="39.39"/></g></g><g class="cls-23"><g class="cls-4"><rect class="cls-7" x="126.81" y="378.86" width="28" height="41.37"/></g></g><g class="cls-24"><g class="cls-4"><rect class="cls-25" x="128.68" y="379.13" width="26.08" height="39.39"/></g></g><g class="cls-26"><g class="cls-4"><rect class="cls-5" x="169.75" y="249.24" width="153.26" height="73.37"/></g></g><g class="cls-27"><g class="cls-4"><rect class="cls-28" x="170.03" y="258.06" width="150.01" height="12.05"/></g></g><g class="cls-29"><g class="cls-4"><rect class="cls-28" x="170.03" y="270.54" width="150.01" height="12.05"/></g></g><g class="cls-30"><g class="cls-4"><rect class="cls-28" x="170.03" y="289.26" width="150.01" height="12.05"/></g></g><g class="cls-31"><g class="cls-4"><rect class="cls-28" x="170.03" y="301.74" width="150.01" height="12.05"/></g></g><g class="cls-32"><g class="cls-4"><rect class="cls-28" x="170.03" y="264.3" width="150.01" height="12.05"/></g></g><g class="cls-33"><g class="cls-4"><rect class="cls-28" x="170.03" y="276.78" width="150.01" height="12.05"/></g></g><g class="cls-34"><g class="cls-4"><rect class="cls-28" x="170.03" y="283.02" width="150.01" height="12.05"/></g></g><g class="cls-35"><g class="cls-4"><rect class="cls-28" x="170.03" y="295.5" width="150.01" height="12.05"/></g></g><g class="cls-36"><g class="cls-4"><rect class="cls-25" x="13.5" y="245.13" width="175.65" height="81.58"/></g></g><g class="cls-37"><g class="cls-4"><g class="cls-18"><g class="cls-38"><g class="cls-39"><g class="cls-38"><rect class="cls-25" x="165.91" y="245.13" width="160.93" height="81.59"/></g></g></g></g></g></g><g class="cls-40"><g class="cls-4"><rect class="cls-7" x="186.3" y="264.69" width="26.12" height="40.6"/></g></g><g class="cls-41"><g class="cls-4"><rect class="cls-7" x="185.34" y="263.66" width="28.03" height="42.66"/></g></g><g class="cls-42"><g class="cls-4"><rect class="cls-16" x="187.21" y="263.95" width="26.12" height="40.6"/></g></g><g class="cls-43"><g class="cls-4"><rect class="cls-44" x="74.98" y="315.73" width="280.11" height="53.92"/></g></g><g class="cls-45"><g class="cls-4"><rect class="cls-5" x="2.54" y="318.9" width="195.91" height="47.59"/></g></g><g class="cls-46"><g class="cls-4"><rect class="cls-7" x="10.6" y="329.69" width="181.77" height="11.58"/></g></g><g class="cls-47"><g class="cls-4"><rect class="cls-7" x="10.6" y="344.11" width="181.77" height="11.58"/></g></g><g class="cls-48"><g class="cls-4"><rect class="cls-7" x="9.52" y="324.88" width="182.85" height="11.58"/></g></g><g class="cls-49"><g class="cls-4"><rect class="cls-7" x="11.68" y="334.5" width="180.69" height="11.58"/></g></g><g class="cls-50"><g class="cls-4"><rect class="cls-7" x="11.68" y="339.3" width="180.69" height="11.58"/></g></g><g class="cls-51"><g class="cls-4"><rect class="cls-7" x="9.52" y="348.91" width="182.85" height="11.58"/></g></g><g class="cls-52"><g class="cls-4"><g class="cls-18"><g class="cls-53"><g class="cls-54"><g class="cls-53"><rect class="cls-55" x="-0.5" y="315.73" width="202" height="53.92"/></g></g></g></g></g></g><g class="cls-56"><g class="cls-4"><rect class="cls-7" x="158.19" y="326.36" width="22.79" height="25.13"/></g></g><g class="cls-57"><g class="cls-4"><rect class="cls-7" x="157.43" y="325.57" width="24.31" height="26.71"/></g></g><g class="cls-58"><g class="cls-4"><rect class="cls-16" x="156.7" y="324.99" width="24.31" height="26.71"/></g></g><g class="cls-59"><g class="cls-4"><rect class="cls-60" x="54.38" y="92.94" width="324.9" height="160.23"/></g></g><g class="cls-61"><g class="cls-4"><rect class="cls-16" x="50.53" y="89.03" width="332.6" height="168.05"/></g></g><g class="cls-62"><g class="cls-4"><rect class="cls-28" x="138.79" y="95.37" width="237.82" height="141.88"/></g></g><g class="cls-63"><g class="cls-4"><rect class="cls-7" x="153.74" y="103.36" width="42.05" height="112.24"/></g></g><g class="cls-64"><g class="cls-4"><rect class="cls-7" x="159.69" y="103.36" width="42.05" height="112.25"/></g></g><g class="cls-65"><g class="cls-4"><rect class="cls-7" x="165.64" y="103.36" width="42.05" height="112.24"/></g></g><g class="cls-66"><g class="cls-4"><rect class="cls-7" x="171.6" y="103.37" width="42.05" height="112.24"/></g></g><g class="cls-67"><g class="cls-4"><rect class="cls-7" x="177.55" y="103.36" width="42.06" height="112.24"/></g></g><g class="cls-68"><g class="cls-4"><rect class="cls-7" x="183.51" y="103.36" width="42.06" height="112.25"/></g></g><g class="cls-69"><g class="cls-4"><rect class="cls-7" x="189.46" y="103.36" width="42.06" height="112.25"/></g></g><g class="cls-70"><g class="cls-4"><rect class="cls-7" x="195.41" y="103.36" width="42.06" height="112.25"/></g></g><g class="cls-71"><g class="cls-4"><rect class="cls-7" x="201.37" y="103.37" width="42.06" height="112.24"/></g></g><g class="cls-72"><g class="cls-4"><rect class="cls-7" x="207.32" y="130.27" width="30.86" height="85.34"/></g></g><g class="cls-73"><g class="cls-4"><rect class="cls-7" x="213.28" y="103.36" width="42.06" height="112.25"/></g></g><g class="cls-74"><g class="cls-4"><rect class="cls-7" x="219.23" y="103.36" width="42.05" height="112.25"/></g></g><g class="cls-75"><g class="cls-4"><rect class="cls-7" x="225.19" y="103.36" width="42.06" height="112.24"/></g></g><g class="cls-76"><g class="cls-4"><rect class="cls-7" x="231.14" y="103.36" width="42.06" height="112.25"/></g></g><g class="cls-77"><g class="cls-4"><rect class="cls-7" x="237.1" y="103.36" width="42.06" height="112.25"/></g></g><g class="cls-78"><g class="cls-4"><rect class="cls-7" x="243.05" y="103.36" width="42.06" height="112.25"/></g></g><g class="cls-79"><g class="cls-4"><rect class="cls-7" x="249" y="137.64" width="27.88" height="77.97"/></g></g><g class="cls-80"><g class="cls-4"><rect class="cls-7" x="254.96" y="103.36" width="42.05" height="112.25"/></g></g><g class="cls-81"><g class="cls-4"><rect class="cls-7" x="260.91" y="103.36" width="42.06" height="112.24"/></g></g><g class="cls-82"><g class="cls-4"><rect class="cls-7" x="266.87" y="103.36" width="42.06" height="112.25"/></g></g><g class="cls-83"><g class="cls-4"><rect class="cls-7" x="272.82" y="103.36" width="42.06" height="112.24"/></g></g><g class="cls-84"><g class="cls-4"><rect class="cls-7" x="278.77" y="103.37" width="42.06" height="112.24"/></g></g><g class="cls-85"><g class="cls-4"><rect class="cls-7" x="284.73" y="103.37" width="42.06" height="112.24"/></g></g><g class="cls-86"><g class="cls-4"><rect class="cls-7" x="290.68" y="103.36" width="42.06" height="112.24"/></g></g><g class="cls-87"><g class="cls-4"><rect class="cls-7" x="296.64" y="103.37" width="42.06" height="112.24"/></g></g><g class="cls-88"><g class="cls-4"><rect class="cls-7" x="302.59" y="103.36" width="42.06" height="112.24"/></g></g><g class="cls-89"><g class="cls-4"><rect class="cls-7" x="308.55" y="159.62" width="20.47" height="55.99"/></g></g><g class="cls-90"><g class="cls-4"><rect class="cls-91" x="321.65" y="95.05" width="56.09" height="139.1"/></g></g><g class="cls-92"><g class="cls-4"><rect class="cls-5" x="23.54" y="214.4" width="318.79" height="38.78"/></g></g><g class="cls-93"><g class="cls-4"><rect class="cls-91" x="209.47" y="214.4" width="132.86" height="38.77"/></g></g><g class="cls-94"><g class="cls-4"><g class="cls-18"><g class="cls-95"><g class="cls-96"><g class="cls-97"><rect class="cls-16" x="7.5" y="239.27" width="271.85" height="17.82"/></g></g></g></g></g></g><g class="cls-98"><g class="cls-4"><g class="cls-18"><g class="cls-99"><g class="cls-100"><g class="cls-101"><rect class="cls-16" x="204.26" y="89.03" width="178.87" height="168.05"/></g></g></g></g></g></g><g class="cls-102"><g class="cls-4"><rect class="cls-16" x="44.15" y="205.56" width="74.34" height="110.51" transform="translate(-22.42 8.08) rotate(-5)"/></g></g><g class="cls-103"><g class="cls-4"><rect class="cls-104" x="46.72" y="200.34" width="82" height="108.97" transform="translate(-21.88 8.61) rotate(-5)"/></g></g><g class="cls-105"><g class="cls-4"><rect class="cls-106" x="17.11" y="300.55" width="59.59" height="27.42" transform="matrix(1, -0.09, 0.09, 1, -27.21, 5.28)"/></g></g><g class="cls-107"><g class="cls-4"><rect class="cls-16" x="109.59" y="205.38" width="37.62" height="109.5" transform="translate(-107.09 90.73) rotate(-28)"/></g></g><g class="cls-108"><g class="cls-4"><rect class="cls-106" x="108.22" y="287.59" width="61.67" height="28.65" transform="translate(-73.4 46.28) rotate(-15)"/></g></g><g class="cls-109"><g class="cls-4"><rect class="cls-104" x="79.5" y="166.55" width="140.62" height="146.65" transform="translate(-102.21 368.22) rotate(-85)"/></g></g><g class="cls-110"><g class="cls-4"><rect class="cls-16" x="117.41" y="19" width="52.06" height="83.7" transform="translate(-10.86 82.57) rotate(-31)"/></g></g><g class="cls-111"><g class="cls-4"><rect class="cls-104" x="103.46" y="-1.78" width="97.4" height="64.93" transform="translate(5.93 82.75) rotate(-31)"/></g></g><g class="cls-112"><g class="cls-4"><rect class="cls-16" x="87.87" y="151.79" width="68.45" height="39.81" transform="translate(-69.49 84.05) rotate(-30)"/></g></g><g class="cls-113"><g class="cls-4"><rect class="cls-114" x="83.26" y="92.67" width="111.24" height="81.79" transform="translate(-48.18 87.34) rotate(-30)"/></g></g><g class="cls-115"><g class="cls-4"><rect class="cls-116" x="132.63" y="69.04" width="80.03" height="114.31" transform="translate(-20.91 35.26) rotate(-11)"/></g></g><g class="cls-117"><g class="cls-4"><rect class="cls-118" x="70.19" y="190.55" width="80.22" height="16.73" transform="translate(-47.72 35.32) rotate(-15)"/></g></g><g class="cls-119"><g class="cls-4"><rect class="cls-118" x="59.32" y="137.6" width="46.8" height="75.57" transform="matrix(0.97, -0.26, 0.26, 0.97, -42.58, 27.39)"/></g></g><g class="cls-120"><g class="cls-4"><rect class="cls-118" x="59.37" y="137.99" width="44.45" height="75.47" transform="translate(-42.7 27.11) rotate(-15)"/></g></g><g class="cls-121"><g class="cls-4"><rect class="cls-16" x="97.71" y="160.32" width="68.13" height="33.4" transform="translate(-56.72 62.25) rotate(-22)"/></g></g><g class="cls-122"><g class="cls-4"><rect class="cls-114" x="108.91" y="67.21" width="114.85" height="139.99" transform="translate(-23.12 34.26) rotate(-11)"/></g></g></svg>