<?xml version="1.0" encoding="UTF-8"?>
<svg width="71px" height="98px" viewBox="0 0 71 98" version="1.1" xmlns="http://www.w3.org/2000/svg" xmlns:xlink="http://www.w3.org/1999/xlink">
    <!-- Generator: sketchtool 50.2 (55047) - http://www.bohemiancoding.com/sketch -->
    <title>C0623A11-D79C-4091-A893-DE87F658D81E</title>
    <desc>Created with sketchtool.</desc>
    <defs></defs>
    <g id="Telas" stroke="none" stroke-width="1" fill="none" fill-rule="evenodd">
        <g id="SME-Curriculo" transform="translate(-624.000000, -1705.000000)">
            <g id="objetivos" transform="translate(275.000000, 1707.000000)">
                <g id="objetivos-icon" transform="translate(351.000000, 0.000000)">
                    <g id="Group-5" stroke="#000000" stroke-width="4">
                        <path d="M13.0025661,0.258499317 C5.83281517,0.258499317 -0.000112220237,6.09142671 -0.000112220237,13.2611777 C-0.000112220237,20.4306481 5.83281517,26.2632949 13.0025661,26.2632949 C20.1723171,26.2632949 26.0052445,20.4306481 26.0052445,13.2611777 C26.0052445,6.09142671 20.1723171,0.258499317 13.0025661,0.258499317" id="Fill-3" fill="#000000"></path>
                        <path d="M13.0025661,34.1265993 C5.83281517,34.1265993 -0.000112220238,39.9595267 -0.000112220238,47.1292777 C-0.000112220238,54.2987481 5.83281517,60.1316755 13.0025661,60.1316755 C20.1723171,60.1316755 26.0052445,54.2987481 26.0052445,47.1292777 C26.0052445,39.9595267 20.1723171,34.1265993 13.0025661,34.1265993" id="Path"></path>
                        <path d="M12.4999439,68.4975687 C5.60734169,68.4975687 -0.000112220238,74.1050226 -0.000112220238,80.9976248 C-0.000112220238,87.8899573 5.60734169,93.4974112 12.4999439,93.4974112 C19.3925461,93.4974112 25,87.8899573 25,80.9976248 C25,74.1050226 19.3925461,68.4975687 12.4999439,68.4975687" id="Path"></path>
                    </g>
                    <polyline id="Stroke-12" stroke="#FFFFFF" stroke-width="3" points="6.1728986 13.4043707 10.630567 17.8620391 19.8323459 8.66026017"></polyline>
                    <path d="M36.0082479,9.3799566 L52.5607329,9.3799566" id="Stroke-14" stroke="#231F20" stroke-width="4"></path>
                    <path d="M36.0082479,17.1419499 L63.4275796,17.1419499" id="Stroke-16" stroke="#231F20" stroke-width="4"></path>
                    <path d="M36.0082479,77.1164092 L49.755227,77.1164092" id="Stroke-18" stroke="#231F20" stroke-width="4"></path>
                    <path d="M36.0082479,84.8784024 L66.2330855,84.8784024" id="Stroke-20" stroke="#231F20" stroke-width="4"></path>
                    <path d="M36.0082479,43.2483091 L68.8612835,43.2483091" id="Stroke-24" stroke="#231F20" stroke-width="4"></path>
                    <path d="M36.0082479,51.0103024 L57.9941562,51.0103024" id="Stroke-22" stroke="#231F20" stroke-width="4"></path>
                </g>
            </g>
        </g>
    </g>
</svg>