<?xml version="1.0" encoding="UTF-8"?>
<svg width="82px" height="82px" viewBox="0 0 82 82" version="1.1" xmlns="http://www.w3.org/2000/svg" xmlns:xlink="http://www.w3.org/1999/xlink">
    <!-- Generator: sketchtool 50.2 (55047) - http://www.bohemiancoding.com/sketch -->
    <title>B8C55A9B-0336-4EF1-9F2E-CA8685D4A7C3</title>
    <desc>Created with sketchtool.</desc>
    <defs>
        <polygon id="path-1" points="0.179911258 0.0997033113 12.8098119 0.0997033113 12.8098119 18.192053 0.179911258 18.192053"></polygon>
    </defs>
    <g id="Telas" stroke="none" stroke-width="1" fill="none" fill-rule="evenodd">
        <g id="SME-Curriculo" transform="translate(-280.000000, -1168.000000)">
            <g id="ods" transform="translate(110.000000, 1168.000000)">
                <g id="Page-1" transform="translate(170.000000, 0.000000)">
                    <path d="M21.0294159,29.2452457 C22.0476278,27.5153715 23.2825152,25.9296762 24.6979656,24.5259013 L12.6684026,11.3350338 C9.64173377,14.2272987 7.06090596,17.5803384 5.03099868,21.2760404 L21.0294159,29.2452457" id="Fill-1" fill="#56C02B"></path>
                    <path d="M50.5193583,19.9264887 C52.3407358,20.761151 54.0347689,21.8260649 55.5637159,23.0870185 L67.6274907,9.91624371 C64.4501265,7.17630331 60.8472854,4.91560132 56.9362656,3.2460053 L50.5193583,19.9264887" id="Fill-3" fill="#DDA63A"></path>
                    <path d="M78.1463258,23.8927364 L62.1574119,31.8630278 C62.9212066,33.645306 63.4639815,35.538094 63.7583126,37.5123391 L81.5441669,35.8335113 C81.0195841,31.6227298 79.8539351,27.6077166 78.1463258,23.8927364" id="Fill-5" fill="#C5192D"></path>
                    <path d="M61.010145,29.5522841 L76.9971583,21.5830788 C75.0166682,17.9033967 72.4909596,14.5604033 69.5264695,11.6643371 L57.4629662,24.8318536 C58.8368735,26.2435026 60.0315755,27.828655 61.010145,29.5522841" id="Fill-7" fill="#4C9F38"></path>
                    <path d="M17.8524046,40.914253 C17.8524046,40.5547563 17.8643517,40.1952596 17.8798285,39.8379351 L0.0899013245,38.2451801 C0.0342390728,39.1270874 2.71523179e-05,40.0171404 2.71523179e-05,40.914253 C2.71523179e-05,44.3264848 0.423874834,47.6415113 1.21156358,50.8096437 L18.3932788,45.8806834 C18.0411132,44.2797828 17.8524046,42.6199616 17.8524046,40.914253" id="Fill-9" fill="#3F7E44"></path>
                    <path d="M58.7711377,55.5363192 C57.5066543,57.0753126 56.0472172,58.4473192 54.4324689,59.6175841 L63.8255417,74.8255974 C67.3116278,72.4636172 70.4151377,69.5786834 73.0239325,66.2837497 L58.7711377,55.5363192" id="Fill-11" fill="#FCC30B"></path>
                    <path d="M64.006702,40.914253 C64.006702,42.5987828 63.825596,44.240955 63.4780464,45.8231205 L80.6575894,50.7591404 C81.4409338,47.6048556 81.8585364,44.3069351 81.8585364,40.914253 C81.8585364,40.0717166 81.8305695,39.2354252 81.7789801,38.4023921 L63.9906821,40.082306 C64.000457,40.3606172 64.006702,40.6364848 64.006702,40.914253" id="Fill-13" fill="#FF3A21"></path>
                    <path d="M23.3759464,55.8762662 L9.15682053,66.6831603 C11.8014563,69.9392662 14.9334762,72.777498 18.4426417,75.0949483 L27.8338139,59.903498 C26.1794232,58.7595709 24.6803437,57.4035841 23.3759464,55.8762662" id="Fill-15" fill="#FD9D24"></path>
                    <path d="M18.1404907,37.2712265 C18.4587159,35.2616834 19.0411331,33.3398424 19.8442987,31.5399152 L3.86190132,23.5772265 C2.09591457,27.3356503 0.885192715,31.4036106 0.334543709,35.6743987 L18.1404907,37.2712265" id="Fill-17" fill="#0A97D9"></path>
                    <path d="M61.6406762,76.2009709 L52.261451,61.0133219 C50.5573715,61.9753285 48.7218748,62.730706 46.7875437,63.2376397 L50.0976828,80.8062755 C54.2158748,79.8605603 58.0991993,78.2895272 61.6406762,76.2009709" id="Fill-19" fill="#A21942"></path>
                    <path d="M62.7935907,48.3107344 C62.1715311,50.1375424 61.3300808,51.8617146 60.2966636,53.4525689 L74.5608623,64.2119464 C76.8777695,60.8809 78.7089219,57.1925291 79.9595576,53.2437675 L62.7935907,48.3107344" id="Fill-21" fill="#26BDE2"></path>
                    <g id="Group-25" transform="translate(34.754967, 63.650735)">
                        <mask id="mask-2" fill="white">
                            <use xlink:href="#path-1"></use>
                        </mask>
                        <g id="Clip-24"></g>
                        <path d="M9.50293113,0.0997033113 C8.41710993,0.256643709 7.30576556,0.34217351 6.17432848,0.34217351 C5.26608344,0.34217351 4.36869934,0.285425166 3.48842119,0.183060927 L0.179911258,17.7525113 C2.1378649,18.0397828 4.13817616,18.1921073 6.17432848,18.1921073 C8.43340132,18.1921073 10.6503881,18.0063854 12.8098119,17.6528623 L9.50293113,0.0997033113" id="Fill-23" fill="#FD6925" mask="url(#mask-2)"></path>
                    </g>
                    <path d="M42.4049695,17.8824894 C44.3873603,18.0098338 46.3018702,18.3869795 48.115645,18.985145 L54.5320093,2.30954901 C50.7146649,0.961436424 46.6420887,0.163429801 42.4049695,0.0143635762 L42.4049695,17.8824894" id="Fill-26" fill="#E5243B"></path>
                    <path d="M35.6998675,63.3943086 C33.6995563,62.9278318 31.7986225,62.2012358 30.0350795,61.2519907 L20.6379338,76.4507722 C24.2529934,78.5200503 28.2055563,80.0525272 32.3948874,80.9450238 L35.6998675,63.3943086" id="Fill-28" fill="#DD1367"></path>
                    <path d="M33.9941046,18.902955 C35.8469788,18.3170079 37.8016742,17.9602265 39.8239788,17.8657364 L39.8239788,5.43046358e-05 C35.5290252,0.114637086 31.4029589,0.896895364 27.5337536,2.23903444 L33.9941046,18.902955" id="Fill-30" fill="#19486A"></path>
                    <path d="M21.8112397,53.8232523 C20.677902,52.1490404 19.753094,50.3157159 19.0886768,48.366451 L1.91918013,53.2935106 C3.21950464,57.3886232 5.14650464,61.2043384 7.59021325,64.6301464 L21.8112397,53.8232523" id="Fill-32" fill="#BF8B2E"></path>
                    <path d="M26.6312921,22.8131331 C28.1398748,21.6181596 29.8002391,20.6110801 31.5800735,19.8182325 L25.1235238,3.16272914 C21.2782126,4.77720596 17.7348351,6.9635106 14.5933119,9.61194768 L26.6312921,22.8131331" id="Fill-34" fill="#00689D"></path>
                </g>
            </g>
        </g>
    </g>
</svg>