<?xml version="1.0" encoding="UTF-8"?>
<svg width="82px" height="91px" viewBox="0 0 82 91" version="1.1" xmlns="http://www.w3.org/2000/svg" xmlns:xlink="http://www.w3.org/1999/xlink">
    <!-- Generator: sketchtool 50.2 (55047) - http://www.bohemiancoding.com/sketch -->
    <title>C9B4ACB3-0A65-4D20-A3EE-94DF47E7F808</title>
    <desc>Created with sketchtool.</desc>
    <defs></defs>
    <g id="Telas" stroke="none" stroke-width="1" fill="none" fill-rule="evenodd">
        <g id="SME-Curriculo" transform="translate(-919.000000, -1158.000000)" stroke="#E1541B" stroke-width="4">
            <g id="matriz" transform="translate(750.000000, 1160.000000)">
                <g id="matriz-icon" transform="translate(171.000000, 0.000000)">
                    <path d="M53.6321538,43.5468462 C53.6321538,51.3340154 47.3186308,57.6475385 39.5314615,57.6475385 C31.7429538,57.6475385 25.4307692,51.3340154 25.4307692,43.5468462 C25.4307692,35.7596769 31.7429538,29.4461538 39.5314615,29.4461538 C47.3186308,29.4461538 53.6321538,35.7596769 53.6321538,43.5468462 Z" id="Stroke-1"></path>
                    <path d="M46.6146,7.91566154 C46.6146,12.2870769 43.0716923,15.8313231 38.7002769,15.8313231 C34.3275231,15.8313231 30.7846154,12.2870769 30.7846154,7.91566154 C30.7846154,3.54424615 34.3275231,0 38.7002769,0 C43.0716923,0 46.6146,3.54424615 46.6146,7.91566154 Z" id="Stroke-3"></path>
                    <path d="M38.8153846,16.0615385 L38.8153846,29.2467231" id="Stroke-5"></path>
                    <path d="M11.8738481,18.4617557 C15.6603557,20.6474634 16.957325,25.4886788 14.7716173,29.2738481 C12.5859096,33.0603557 7.74469421,34.357325 3.95952498,32.1716173 C0.173017285,29.9859096 -1.12395195,25.1446942 1.06175575,21.359525 C3.24746344,17.5730173 8.08867882,16.2760481 11.8738481,18.4617557 Z" id="Stroke-7"></path>
                    <path d="M14.7230769,29.4461538 L26.1414923,36.0394154" id="Stroke-9"></path>
                    <path d="M3.95952498,53.2617557 C7.74469421,51.0760481 12.5859096,52.3730173 14.7716173,56.159525 C16.957325,59.9446942 15.6603557,64.7859096 11.8738481,66.9716173 C8.08867882,69.1559865 3.24746344,67.8603557 1.06175575,64.0738481 C-1.12395195,60.2886788 0.173017285,55.4474634 3.95952498,53.2617557 Z" id="Stroke-11"></path>
                    <path d="M14.7230769,56.115 L26.1414923,49.5230769" id="Stroke-13"></path>
                    <path d="M30.7846154,78.8527846 C30.7846154,74.4813692 34.3275231,70.9384615 38.7002769,70.9384615 C43.0716923,70.9384615 46.6146,74.4813692 46.6146,78.8527846 C46.6146,83.2255385 43.0716923,86.7684462 38.7002769,86.7684462 C34.3275231,86.7684462 30.7846154,83.2255385 30.7846154,78.8527846 Z" id="Stroke-15"></path>
                    <path d="M38.8153846,70.7403692 L38.8153846,57.5538462" id="Stroke-17"></path>
                    <path d="M65.5280599,66.9716173 C61.7428906,64.7859096 60.4445829,59.9446942 62.6316291,56.159525 C64.8173368,52.3730173 69.6572137,51.0760481 73.4423829,53.2617557 C77.2288906,55.4488019 78.5258599,60.2886788 76.3401522,64.0738481 C74.1544445,67.8603557 69.3132291,69.157325 65.5280599,66.9716173 Z" id="Stroke-19"></path>
                    <path d="M62.2799538,56.1163385 L50.8615385,49.5230769" id="Stroke-21"></path>
                    <path d="M73.4423829,32.1707306 C69.6572137,34.3564382 64.8173368,33.059469 62.6316291,29.2729613 C60.4445829,25.4877921 61.7428906,20.6479152 65.5280599,18.460869 C69.3132291,16.2764998 74.1544445,17.573469 76.3401522,21.3586382 C78.5258599,25.1438075 77.2288906,29.9850229 73.4423829,32.1707306 Z" id="Stroke-23"></path>
                    <path d="M62.2799538,29.4461538 L50.8615385,36.0380769" id="Stroke-25"></path>
                </g>
            </g>
        </g>
    </g>
</svg>