<?xml version="1.0" encoding="UTF-8"?>
<svg width="39px" height="30px" viewBox="0 0 39 30" version="1.1" xmlns="http://www.w3.org/2000/svg" xmlns:xlink="http://www.w3.org/1999/xlink">
    <!-- Generator: sketchtool 49.1 (51147) - http://www.bohemiancoding.com/sketch -->
    <title>A788A3FC-362E-4BB0-955F-A9E027E4107A</title>
    <desc>Created with sketchtool.</desc>
    <defs>
        <polygon id="path-1" points="0 0.329307692 38.8976154 0.329307692 38.8976154 29.6153846 0 29.6153846"></polygon>
    </defs>
    <g id="Page-1" stroke="none" stroke-width="1" fill="none" fill-rule="evenodd">
        <g id="SME-Atividade-1" transform="translate(-261.000000, -335.000000)">
            <g id="Group-3" transform="translate(261.000000, 335.000000)">
                <mask id="mask-2" fill="white">
                    <use xlink:href="#path-1"></use>
                </mask>
                <g id="Clip-2"></g>
                <path d="M21.0783846,26.2950769 L7.73184615,26.2950769 L7.73184615,4.832 L9.89915385,4.832 L9.89915385,20.3893077 L9.83876923,20.3893077 L9.22915385,20.3893077 L9.22915385,23.2331538 L19.5533846,23.2331538 L19.5533846,20.3893077 L18.9506923,20.3893077 L18.948,20.3893077 L18.948,4.832 L21.0783846,4.832 L21.0783846,26.2950769 Z M11.1041538,4.832 L17.7422308,4.832 L17.7422308,20.3893077 L11.1041538,20.3896923 L11.1041538,4.832 Z M32.5460769,26.2950769 L32.5460769,20.927 C35.4299231,20.7850769 37.678,19.5681538 37.678,15.7150769 C37.678,11.5985385 35.1114615,6.02584615 31.9449231,6.02584615 C28.7783846,6.02584615 26.2095385,11.5985385 26.2095385,15.7150769 C26.2095385,19.5696923 28.458,20.7843077 31.3414615,20.927 L31.3414615,26.2950769 L23.4645385,26.2950769 L23.4656923,0.329307692 L22.7703077,0.329307692 L22.5418462,0.329307692 L21.0783846,0.329307692 L21.0783846,1.81315385 L7.73184615,1.81315385 L7.73184615,0.329307692 L6.26761538,0.329307692 L6.03876923,0.329307692 L5.34453846,0.329307692 L5.34453846,26.2950769 L-7.69230769e-05,26.2950769 L-7.69230769e-05,29.6154615 L38.8976154,29.6154615 L38.8976154,26.2950769 L32.5460769,26.2950769 Z" id="Fill-1" fill="#000000" mask="url(#mask-2)"></path>
            </g>
        </g>
    </g>
</svg>