<?xml version="1.0" encoding="UTF-8"?>
<svg width="42px" height="15px" viewBox="0 0 42 15" version="1.1" xmlns="http://www.w3.org/2000/svg" xmlns:xlink="http://www.w3.org/1999/xlink">
    <!-- Generator: sketchtool 49.1 (51147) - http://www.bohemiancoding.com/sketch -->
    <title>F1D91B39-9E2F-4E45-8E1E-187C2C6CF602</title>
    <desc>Created with sketchtool.</desc>
    <defs>
        <polygon id="path-1" points="0 0 13 0 13 4 0 4"></polygon>
    </defs>
    <g id="Page-1" stroke="none" stroke-width="1" fill="none" fill-rule="evenodd">
        <g id="SME-Atividade-1" transform="translate(-73.000000, -349.000000)">
            <g id="Group-2" transform="translate(73.000000, 349.000000)">
                <path d="M6.00023124,0 C8.7616427,0 11,2.2383573 11,5.00023124 C11,7.76118022 8.7616427,10 6.00023124,10 C3.2383573,10 1,7.76118022 1,5.00023124 C1,2.2383573 3.2383573,0 6.00023124,0" id="Fill-4" fill="#000000"></path>
                <path d="M8.53715017,11 L4.5598683,11 C2.03738796,11 0,12.787234 0,15 L13,15 C13,12.787234 11.0596305,11 8.53715017,11" id="Fill-6" fill="#000000"></path>
                <path d="M21,0 C23.7612838,0 26,2.2383573 26,5.00023124 C26,7.76118022 23.7612838,10 21,10 C18.2387162,10 16,7.76118022 16,5.00023124 C16,2.2383573 18.2387162,0 21,0" id="Fill-8" fill="#000000"></path>
                <path d="M22.4404405,11 L18.5595595,11 C16.0369869,11 14,12.787234 14,15 L27,15 C27,12.787234 24.9630131,11 22.4404405,11" id="Fill-10" fill="#000000"></path>
                <path d="M35,0 C37.7617462,0 40,2.2383573 40,5.00023124 C40,7.76118022 37.7617462,10 35,10 C32.2387162,10 30,7.76118022 30,5.00023124 C30,2.2383573 32.2387162,0 35,0" id="Fill-12" fill="#000000"></path>
                <g id="Group-16" transform="translate(29.000000, 11.000000)">
                    <mask id="mask-2" fill="white">
                        <use xlink:href="#path-1"></use>
                    </mask>
                    <g id="Clip-15"></g>
                    <path d="M8.53496583,0 L4.5587016,0 C2.03686667,0 0,1.78723404 0,4 L12.9966738,4 C13.0936674,1.78723404 11.0568008,0 8.53496583,0" id="Fill-14" fill="#000000" mask="url(#mask-2)"></path>
                </g>
            </g>
        </g>
    </g>
</svg>