<?xml version="1.0" encoding="UTF-8"?>
<svg width="16px" height="14px" viewBox="0 0 16 14" version="1.1" xmlns="http://www.w3.org/2000/svg" xmlns:xlink="http://www.w3.org/1999/xlink">
    <!-- Generator: sketchtool 49.1 (51147) - http://www.bohemiancoding.com/sketch -->
    <title>99419051-0F57-4A38-B484-70F310DCFE6A</title>
    <desc>Created with sketchtool.</desc>
    <defs></defs>
    <g id="Page-1" stroke="none" stroke-width="1" fill="none" fill-rule="evenodd">
        <g id="SME-Sequências-Card-Aberto-Copy" transform="translate(-45.000000, -311.000000)" fill="#6A6A6A">
            <g id="Group-9" transform="translate(15.000000, 291.000000)">
                <g id="Group">
                    <path d="M34,33 L34,34 L31,34 L31,33 L30,33 L30,31 L31,31 L31,30 L34,30 L34,31 L46,31 L46,33 L34,33 Z M43,28 L43,29 L40,29 L40,28 L30,28 L30,26 L40,26 L40,25 L43,25 L43,26 L46,26 L46,28 L43,28 Z M37,23 L37,24 L34,24 L34,23 L30,23 L30,21 L34,21 L34,20 L37,20 L37,21 L46,21 L46,23 L37,23 Z" id="Combined-Shape"></path>
                </g>
            </g>
        </g>
    </g>
</svg>