<?xml version="1.0" encoding="utf-8"?>
<!-- Generator: Adobe Illustrator 22.0.0, SVG Export Plug-In . SVG Version: 6.00 Build 0)  -->
<svg version="1.1" id="Layer_1" xmlns="http://www.w3.org/2000/svg" xmlns:xlink="http://www.w3.org/1999/xlink" x="0px" y="0px"
	 viewBox="0 0 39 30" style="enable-background:new 0 0 39 30;" xml:space="preserve">
<title>ambiente ext icon</title>
<desc>Created with Sketch.</desc>
<g id="Clip-2">
</g>
<path d="M33.4,26.6V7.1h-5.5V4.6L19.3,0l-8.6,4.6v2.6H5.2v19.5H0V30h38.7v-3.4H33.4z M26.2,11.5h4.4V16h-4.4V11.5z M26.2,17.2h4.4
	v4.6h-4.4V17.2z M24.3,16h-4.4v-4.6h4.4V16z M19.3,3.5c1.6,0,3,1.3,3,3s-1.3,3-3,3s-3-1.3-3-3S17.7,3.5,19.3,3.5z M14.4,11.5h4.4V16
	h-4.4V11.5z M8.1,11.5h4.4V16H8.1V11.5z M8.1,17.2h4.4v4.6H8.1V17.2z M14.4,26.6v-9.4h10v9.4H14.4z M18.6,7.7l-0.4-0.3l0.9-1V4.6
	h0.5v2L18.6,7.7z"/>
</svg>
