<?xml version="1.0" encoding="utf-8"?>
<svg width="17px" height="17px" viewBox="0 0 17 17" version="1.1" xmlns="http://www.w3.org/2000/svg" xmlns:bx="https://boxy-svg.com">
  <title>2BF22DA9-89C3-49A6-970F-D2A3F534809A</title>
  <desc>Created with sketchtool.</desc>
  <g id="Page-1" stroke="none" stroke-width="1" fill="none" fill-rule="evenodd">
    <circle id="Oval" fill="#E0E0E0" cx="8.5" cy="8.5" r="8.5"/>
    <path d="M 7.524 12.5 L 9.045 12.5 L 9.045 11.026 L 7.524 11.026 L 7.524 12.5 Z M 7.678 10.098 L 7.678 9.54 C 7.678 8.874 7.975 8.517 8.736 7.982 C 9.224 7.626 9.533 7.376 9.663 7.221 C 9.89 6.96 9.996 6.662 9.996 6.318 C 9.996 5.664 9.545 5.093 8.582 5.093 C 7.571 5.093 7.036 5.676 6.977 6.841 L 5.8 6.746 C 5.812 5.95 6.062 5.283 6.536 4.772 C 7.024 4.26 7.714 4 8.605 4 C 9.355 4 9.973 4.214 10.46 4.641 C 10.947 5.057 11.197 5.593 11.197 6.246 C 11.197 6.805 11.09 7.221 10.805 7.566 C 10.52 7.898 10.377 8.018 9.913 8.35 C 9.854 8.398 9.759 8.469 9.627 8.553 C 9.39 8.731 9.343 8.755 9.165 8.898 C 8.915 9.1 8.785 9.314 8.785 9.623 L 8.785 10.098 L 7.678 10.098 Z" style="fill: rgb(255, 255, 255);" bx:origin="0.556 0.471"/>
  </g>
</svg>