<?xml version="1.0" encoding="UTF-8"?>
<svg width="33px" height="54px" viewBox="0 0 33 54" version="1.1" xmlns="http://www.w3.org/2000/svg" xmlns:xlink="http://www.w3.org/1999/xlink">
    <!-- Generator: sketchtool 50.2 (55047) - http://www.bohemiancoding.com/sketch -->
    <title>2BB57D19-F05A-4072-92FC-143119C0F6B6</title>
    <desc>Created with sketchtool.</desc>
    <defs></defs>
    <g id="Telas" stroke="none" stroke-width="1" fill="none" fill-rule="evenodd">
        <g id="SME-Home" transform="translate(-41.000000, -10.000000)" fill="#FFFFFF">
            <g id="Header" transform="translate(41.000000, 10.000000)">
                <g id="logo">
                    <path d="M20.7298551,1.93579978 C21.2561531,1.93579978 21.6827681,1.5091549 21.6827681,0.982886759 C21.6827681,0.456618615 21.2561531,0.0299737396 20.7298551,0.0299737396 C20.203557,0.0299737396 19.776942,0.456618615 19.776942,0.982886759 C19.776942,1.5091549 20.203557,1.93579978 20.7298551,1.93579978" id="Fill-1"></path>
                    <path d="M3.77819302,4.53883313 L6.60348499,4.53883313 C7.12975313,4.53883313 7.55636809,4.11218825 7.55636809,3.58592011 C7.55636809,3.05965197 7.12975313,2.63300709 6.60348499,2.63300709 L3.77819302,2.63300709 C3.25189496,2.63300709 2.82528,3.05965197 2.82528,3.58592011 C2.82528,4.11218825 3.25189496,4.53883313 3.77819302,4.53883313" id="Fill-4"></path>
                    <path d="M17.9045781,4.53883313 L20.72987,4.53883313 C21.2561382,4.53883313 21.6827531,4.11218825 21.6827531,3.58592011 C21.6827531,3.05965197 21.2561382,2.63300709 20.72987,2.63300709 L17.9045781,2.63300709 C17.37828,2.63300709 16.951665,3.05965197 16.951665,3.58592011 C16.951665,4.11218825 17.37828,4.53883313 17.9045781,4.53883313" id="Fill-6"></path>
                    <path d="M0.952916011,7.14186648 C1.47921407,7.14186648 1.90582903,6.71522161 1.90582903,6.18895346 C1.90582903,5.6626554 1.47921407,5.23604044 0.952916011,5.23604044 C0.42661795,5.23604044 2.99168975e-06,5.6626554 2.99168975e-06,6.18895346 C2.99168975e-06,6.71522161 0.42661795,7.14186648 0.952916011,7.14186648" id="Fill-8"></path>
                    <path d="M3.77819302,7.14186648 L9.42874704,7.14186648 C9.9550451,7.14186648 10.3816601,6.71522161 10.3816601,6.18895346 C10.3816601,5.6626554 9.9550451,5.23604044 9.42874704,5.23604044 L3.77819302,5.23604044 C3.25189496,5.23604044 2.82528,5.6626554 2.82528,6.18895346 C2.82528,6.71522161 3.25189496,7.14186648 3.77819302,7.14186648" id="Fill-10"></path>
                    <path d="M15.0793011,7.14186648 C15.6055991,7.14186648 16.0322141,6.71522161 16.0322141,6.18895346 C16.0322141,5.6626554 15.6055991,5.23604044 15.0793011,5.23604044 C14.553003,5.23604044 14.126388,5.6626554 14.126388,6.18895346 C14.126388,6.71522161 14.553003,7.14186648 15.0793011,7.14186648" id="Fill-12"></path>
                    <path d="M0.952916011,9.74488488 C1.47921407,9.74488488 1.90582903,9.31824 1.90582903,8.79197186 C1.90582903,8.26570371 1.47921407,7.83905884 0.952916011,7.83905884 C0.42661795,7.83905884 2.99168975e-06,8.26570371 2.99168975e-06,8.79197186 C2.99168975e-06,9.31824 0.42661795,9.74488488 0.952916011,9.74488488" id="Fill-14"></path>
                    <path d="M3.77819302,9.74488488 L9.42874704,9.74488488 C9.9550451,9.74488488 10.3816601,9.31824 10.3816601,8.79197186 C10.3816601,8.26570371 9.9550451,7.83905884 9.42874704,7.83905884 L3.77819302,7.83905884 C3.25189496,7.83905884 2.82528,8.26570371 2.82528,8.79197186 C2.82528,9.31824 3.25189496,9.74488488 3.77819302,9.74488488" id="Fill-16"></path>
                    <path d="M12.254024,9.74488488 C12.7803221,9.74488488 13.2069371,9.31824 13.2069371,8.79197186 C13.2069371,8.26570371 12.7803221,7.83905884 12.254024,7.83905884 C11.727726,7.83905884 11.301111,8.26570371 11.301111,8.79197186 C11.301111,9.31824 11.727726,9.74488488 12.254024,9.74488488" id="Fill-18"></path>
                    <path d="M3.77819302,12.3479182 C4.30449108,12.3479182 4.73110604,11.9212734 4.73110604,11.3950052 C4.73110604,10.8687371 4.30449108,10.4420922 3.77819302,10.4420922 C3.25189496,10.4420922 2.82528,10.8687371 2.82528,11.3950052 C2.82528,11.9212734 3.25189496,12.3479182 3.77819302,12.3479182" id="Fill-20"></path>
                    <path d="M6.60347003,12.3479182 C7.12976809,12.3479182 7.55638305,11.9212734 7.55638305,11.3950052 C7.55638305,10.8687371 7.12976809,10.4420922 6.60347003,10.4420922 C6.07717197,10.4420922 5.65055701,10.8687371 5.65055701,11.3950052 C5.65055701,11.9212734 6.07717197,12.3479182 6.60347003,12.3479182" id="Fill-22"></path>
                    <path d="M15.0793011,12.3479182 C15.6055991,12.3479182 16.0322141,11.9212734 16.0322141,11.3950052 L16.0322141,8.79199579 C16.0322141,8.26569773 15.6055991,7.83905285 15.0793011,7.83905285 C14.553003,7.83905285 14.126388,8.26569773 14.126388,8.79199579 L14.126388,11.3950052 C14.126388,11.9212734 14.553003,12.3479182 15.0793011,12.3479182" id="Fill-24"></path>
                    <path d="M23.5551321,10.4420892 C23.028834,10.4420892 22.6022191,10.8687341 22.6022191,11.3950321 L22.6022191,13.9980416 C22.6022191,14.5243097 23.028834,14.9509546 23.5551321,14.9509546 C24.0814301,14.9509546 24.5080451,14.5243097 24.5080451,13.9980416 L24.5080451,11.3950321 C24.5080451,10.8687341 24.0814301,10.4420892 23.5551321,10.4420892" id="Fill-26"></path>
                    <path d="M26.3804091,10.4420892 C25.854111,10.4420892 25.4274961,10.8687341 25.4274961,11.3950321 C25.4274961,11.9212704 25.854111,12.3479152 26.3804091,12.3479152 C26.9067071,12.3479152 27.3333221,11.9212704 27.3333221,11.3950321 C27.3333221,10.8687341 26.9067071,10.4420892 26.3804091,10.4420892" id="Fill-28"></path>
                    <path d="M29.2056861,12.3479182 L32.0309781,12.3479182 C32.5572462,12.3479182 32.9838612,11.9212734 32.9838612,11.3950052 C32.9838612,10.8687371 32.5572462,10.4420922 32.0309781,10.4420922 L29.2056861,10.4420922 C28.679388,10.4420922 28.2527731,10.8687371 28.2527731,11.3950052 C28.2527731,11.9212734 28.679388,12.3479182 29.2056861,12.3479182" id="Fill-30"></path>
                    <path d="M13.2069221,13.9980505 C13.2069221,13.4717525 12.7803071,13.0451076 12.2540091,13.0451076 L6.60345507,13.0451076 C6.07718693,13.0451076 5.65057197,13.4717525 5.65057197,13.9980505 C5.65057197,14.5243187 6.07718693,14.9509635 6.60345507,14.9509635 L12.2540091,14.9509635 C12.7803071,14.9509635 13.2069221,14.5243187 13.2069221,13.9980505" id="Fill-32"></path>
                    <path d="M15.0793011,14.9509516 C15.6055991,14.9509516 16.0322141,14.5243067 16.0322141,13.9980386 C16.0322141,13.4717704 15.6055991,13.0451255 15.0793011,13.0451255 C14.553003,13.0451255 14.126388,13.4717704 14.126388,13.9980386 C14.126388,14.5243067 14.553003,14.9509516 15.0793011,14.9509516" id="Fill-34"></path>
                    <path d="M17.9045781,14.9509516 C18.4308761,14.9509516 18.8574911,14.5243067 18.8574911,13.9980386 L18.8574911,6.18895047 C18.8574911,5.66265241 18.4308761,5.23603745 17.9045781,5.23603745 C17.37828,5.23603745 16.951665,5.66265241 16.951665,6.18895047 L16.951665,13.9980386 C16.951665,14.5243067 17.37828,14.9509516 17.9045781,14.9509516" id="Fill-36"></path>
                    <path d="M20.7298551,13.0451225 C20.203557,13.0451225 19.776942,13.4717674 19.776942,13.9980655 L19.776942,16.6010749 C19.776942,17.127343 20.203557,17.5539879 20.7298551,17.5539879 C21.2561531,17.5539879 21.6827681,17.127343 21.6827681,16.6010749 L21.6827681,13.9980655 C21.6827681,13.4717674 21.2561531,13.0451225 20.7298551,13.0451225" id="Fill-38"></path>
                    <path d="M26.3804091,13.0451225 C25.854111,13.0451225 25.4274961,13.4717674 25.4274961,13.9980655 L25.4274961,21.8071237 C25.4274961,22.3334217 25.854111,22.7600367 26.3804091,22.7600367 C26.9067071,22.7600367 27.3333221,22.3334217 27.3333221,21.8071237 L27.3333221,13.9980655 C27.3333221,13.4717674 26.9067071,13.0451225 26.3804091,13.0451225" id="Fill-40"></path>
                    <path d="M29.2056861,13.0451225 C28.679388,13.0451225 28.2527731,13.4717674 28.2527731,13.9980655 C28.2527731,14.5243037 28.679388,14.9509486 29.2056861,14.9509486 C29.7319842,14.9509486 30.1585991,14.5243037 30.1585991,13.9980655 C30.1585991,13.4717674 29.7319842,13.0451225 29.2056861,13.0451225" id="Fill-42"></path>
                    <path d="M32.0309631,13.0451225 C31.504665,13.0451225 31.0780501,13.4717674 31.0780501,13.9980655 C31.0780501,14.5243037 31.504665,14.9509486 32.0309631,14.9509486 C32.5572612,14.9509486 32.9838761,14.5243037 32.9838761,13.9980655 C32.9838761,13.4717674 32.5572612,13.0451225 32.0309631,13.0451225" id="Fill-44"></path>
                    <path d="M6.60347003,17.5539849 C7.12976809,17.5539849 7.55638305,17.1273401 7.55638305,16.6010719 C7.55638305,16.0748038 7.12976809,15.6481589 6.60347003,15.6481589 C6.07717197,15.6481589 5.65055701,16.0748038 5.65055701,16.6010719 C5.65055701,17.1273401 6.07717197,17.5539849 6.60347003,17.5539849" id="Fill-46"></path>
                    <path d="M8.47584598,16.6010839 C8.47584598,17.127352 8.90246094,17.5539969 9.428759,17.5539969 C9.95502715,17.5539969 10.3816421,17.127352 10.3816421,16.6010839 C10.3816421,16.0747858 9.95502715,15.6481409 9.428759,15.6481409 C8.90246094,15.6481409 8.47584598,16.0747858 8.47584598,16.6010839" id="Fill-48"></path>
                    <path d="M12.254024,17.5539849 L17.9045781,17.5539849 C18.4308761,17.5539849 18.8574911,17.1273401 18.8574911,16.6010719 C18.8574911,16.0748038 18.4308761,15.6481589 17.9045781,15.6481589 L12.254024,15.6481589 C11.727726,15.6481589 11.301111,16.0748038 11.301111,16.6010719 C11.301111,17.1273401 11.727726,17.5539849 12.254024,17.5539849" id="Fill-50"></path>
                    <path d="M23.5551321,15.6481559 C23.028834,15.6481559 22.6022191,16.0748008 22.6022191,16.6010988 C22.6022191,17.1273371 23.028834,17.5539819 23.5551321,17.5539819 C24.0814301,17.5539819 24.5080451,17.1273371 24.5080451,16.6010988 C24.5080451,16.0748008 24.0814301,15.6481559 23.5551321,15.6481559" id="Fill-52"></path>
                    <path d="M29.2056861,15.6481559 C28.679388,15.6481559 28.2527731,16.0748008 28.2527731,16.6010988 C28.2527731,17.1273371 28.679388,17.5539819 29.2056861,17.5539819 C29.7319842,17.5539819 30.1585991,17.1273371 30.1585991,16.6010988 C30.1585991,16.0748008 29.7319842,15.6481559 29.2056861,15.6481559" id="Fill-54"></path>
                    <path d="M0.952916011,20.1570183 L3.77820798,20.1570183 C4.30447612,20.1570183 4.73109108,19.7303734 4.73109108,19.2040753 C4.73109108,18.6778371 4.30447612,18.2511922 3.77820798,18.2511922 L0.952916011,18.2511922 C0.42661795,18.2511922 2.99168975e-06,18.6778371 2.99168975e-06,19.2040753 C2.99168975e-06,19.7303734 0.42661795,20.1570183 0.952916011,20.1570183" id="Fill-56"></path>
                    <path d="M6.60347003,20.1570183 C7.12976809,20.1570183 7.55638305,19.7303734 7.55638305,19.2040753 C7.55638305,18.6778371 7.12976809,18.2511922 6.60347003,18.2511922 C6.07717197,18.2511922 5.65055701,18.6778371 5.65055701,19.2040753 C5.65055701,19.7303734 6.07717197,20.1570183 6.60347003,20.1570183" id="Fill-58"></path>
                    <path d="M23.5551321,18.2511893 L9.42876199,18.2511893 C8.90246393,18.2511893 8.47584898,18.6778341 8.47584898,19.2041023 C8.47584898,19.7303704 8.90246393,20.1570153 9.42876199,20.1570153 L23.5551321,20.1570153 C24.0814301,20.1570153 24.5080451,19.7303704 24.5080451,19.2041023 C24.5080451,18.6778341 24.0814301,18.2511893 23.5551321,18.2511893" id="Fill-60"></path>
                    <path d="M29.2056861,18.2511893 C28.679388,18.2511893 28.2527731,18.6778341 28.2527731,19.2041023 C28.2527731,19.7303704 28.679388,20.1570153 29.2056861,20.1570153 C29.7319842,20.1570153 30.1585991,19.7303704 30.1585991,19.2041023 C30.1585991,18.6778341 29.7319842,18.2511893 29.2056861,18.2511893" id="Fill-62"></path>
                    <path d="M32.0309631,18.2511893 C31.504665,18.2511893 31.0780501,18.6778341 31.0780501,19.2041023 C31.0780501,19.7303704 31.504665,20.1570153 32.0309631,20.1570153 C32.5572612,20.1570153 32.9838761,19.7303704 32.9838761,19.2041023 C32.9838761,18.6778341 32.5572612,18.2511893 32.0309631,18.2511893" id="Fill-64"></path>
                    <path d="M9.42874704,20.8542226 C8.90244898,20.8542226 8.47583402,21.2808675 8.47583402,21.8071356 C8.47583402,22.3334038 8.90244898,22.7600486 9.42874704,22.7600486 C9.9550451,22.7600486 10.3816601,22.3334038 10.3816601,21.8071356 C10.3816601,21.2808675 9.9550451,20.8542226 9.42874704,20.8542226" id="Fill-66"></path>
                    <path d="M17.9045781,20.8542226 L12.254024,20.8542226 C11.727726,20.8542226 11.301111,21.2808675 11.301111,21.8071356 C11.301111,22.3334038 11.727726,22.7600486 12.254024,22.7600486 L17.9045781,22.7600486 C18.4308761,22.7600486 18.8574911,22.3334038 18.8574911,21.8071356 C18.8574911,21.2808675 18.4308761,20.8542226 17.9045781,20.8542226" id="Fill-68"></path>
                    <path d="M20.7298551,20.8542226 C20.203557,20.8542226 19.776942,21.2808675 19.776942,21.8071356 C19.776942,22.3334038 20.203557,22.7600486 20.7298551,22.7600486 C21.2561531,22.7600486 21.6827681,22.3334038 21.6827681,21.8071356 C21.6827681,21.2808675 21.2561531,20.8542226 20.7298551,20.8542226" id="Fill-70"></path>
                    <path d="M23.5551321,20.8542226 C23.028834,20.8542226 22.6022191,21.2808675 22.6022191,21.8071356 C22.6022191,22.3334038 23.028834,22.7600486 23.5551321,22.7600486 C24.0814301,22.7600486 24.5080451,22.3334038 24.5080451,21.8071356 C24.5080451,21.2808675 24.0814301,20.8542226 23.5551321,20.8542226" id="Fill-72"></path>
                    <path d="M29.2056861,20.8542226 C28.679388,20.8542226 28.2527731,21.2808675 28.2527731,21.8071356 L28.2527731,24.410145 C28.2527731,24.9364431 28.679388,25.363088 29.2056861,25.363088 C29.7319842,25.363088 30.1585991,24.9364431 30.1585991,24.410145 L30.1585991,21.8071356 C30.1585991,21.2808675 29.7319842,20.8542226 29.2056861,20.8542226" id="Fill-74"></path>
                    <path d="M32.0309631,20.8542226 C31.504665,20.8542226 31.0780501,21.2808675 31.0780501,21.8071356 C31.0780501,22.3334038 31.504665,22.7600486 32.0309631,22.7600486 C32.5572612,22.7600486 32.9838761,22.3334038 32.9838761,21.8071356 C32.9838761,21.2808675 32.5572612,20.8542226 32.0309631,20.8542226" id="Fill-76"></path>
                    <path d="M3.77819302,23.457253 C3.25189496,23.457253 2.82528,23.8838978 2.82528,24.410166 C2.82528,24.9364341 3.25189496,25.363079 3.77819302,25.363079 C4.30449108,25.363079 4.73110604,24.9364341 4.73110604,24.410166 C4.73110604,23.8838978 4.30449108,23.457253 3.77819302,23.457253" id="Fill-78"></path>
                    <path d="M12.254024,23.457253 L9.42873208,23.457253 C8.90246393,23.457253 8.47584898,23.8838978 8.47584898,24.410166 C8.47584898,24.9364341 8.90246393,25.363079 9.42873208,25.363079 L12.254024,25.363079 C12.7803221,25.363079 13.2069371,24.9364341 13.2069371,24.410166 C13.2069371,23.8838978 12.7803221,23.457253 12.254024,23.457253" id="Fill-80"></path>
                    <path d="M15.0793011,23.457253 C14.553003,23.457253 14.126388,23.8838978 14.126388,24.410166 C14.126388,24.9364341 14.553003,25.363079 15.0793011,25.363079 C15.6055991,25.363079 16.0322141,24.9364341 16.0322141,24.410166 C16.0322141,23.8838978 15.6055991,23.457253 15.0793011,23.457253" id="Fill-82"></path>
                    <path d="M26.3804091,23.457253 C25.854111,23.457253 25.4274961,23.8838978 25.4274961,24.410166 C25.4274961,24.9364341 25.854111,25.363079 26.3804091,25.363079 C26.9067071,25.363079 27.3333221,24.9364341 27.3333221,24.410166 C27.3333221,23.8838978 26.9067071,23.457253 26.3804091,23.457253" id="Fill-84"></path>
                    <path d="M9.42874704,27.9661153 C9.9550451,27.9661153 10.3816601,27.5394705 10.3816601,27.0131724 C10.3816601,26.4869342 9.9550451,26.0602893 9.42874704,26.0602893 C8.90244898,26.0602893 8.47583402,26.4869342 8.47583402,27.0131724 C8.47583402,27.5394705 8.90244898,27.9661153 9.42874704,27.9661153" id="Fill-86"></path>
                    <path d="M12.254024,26.0602863 C11.727726,26.0602863 11.301111,26.4869312 11.301111,27.0131993 C11.301111,27.5394675 11.727726,27.9661124 12.254024,27.9661124 C12.7803221,27.9661124 13.2069371,27.5394675 13.2069371,27.0131993 C13.2069371,26.4869312 12.7803221,26.0602863 12.254024,26.0602863" id="Fill-88"></path>
                    <path d="M6.60347003,30.5691487 C7.12976809,30.5691487 7.55638305,30.1425038 7.55638305,29.6162058 C7.55638305,29.0899376 7.12976809,28.6633227 6.60347003,28.6633227 C6.07717197,28.6633227 5.65055701,29.0899376 5.65055701,29.6162058 C5.65055701,30.1425038 6.07717197,30.5691487 6.60347003,30.5691487" id="Fill-90"></path>
                    <path d="M12.254024,28.6633197 L9.42873208,28.6633197 C8.90246393,28.6633197 8.47584898,29.0899346 8.47584898,29.6162327 C8.47584898,30.1425008 8.90246393,30.5691457 9.42873208,30.5691457 L12.254024,30.5691457 C12.7803221,30.5691457 13.2069371,30.1425008 13.2069371,29.6162327 C13.2069371,29.0899346 12.7803221,28.6633197 12.254024,28.6633197" id="Fill-92"></path>
                    <path d="M15.0793011,28.6633197 C14.553003,28.6633197 14.126388,29.0899346 14.126388,29.6162327 C14.126388,30.1425008 14.553003,30.5691457 15.0793011,30.5691457 C15.6055991,30.5691457 16.0322141,30.1425008 16.0322141,29.6162327 C16.0322141,29.0899346 15.6055991,28.6633197 15.0793011,28.6633197" id="Fill-94"></path>
                    <path d="M10.3816451,32.2192511 C10.3816451,31.692953 9.95503014,31.2663081 9.42873208,31.2663081 L6.60347003,31.2663081 C6.07717197,31.2663081 5.65055701,31.692953 5.65055701,32.2192511 C5.65055701,32.7455491 6.07717197,33.172194 6.60347003,33.172194 L9.42873208,33.172194 C9.95503014,33.172194 10.3816451,32.7455491 10.3816451,32.2192511" id="Fill-96"></path>
                    <path d="M12.254024,31.2663231 C11.727726,31.2663231 11.301111,31.692968 11.301111,32.219266 C11.301111,32.7455342 11.727726,33.1721791 12.254024,33.1721791 C12.7803221,33.1721791 13.2069371,32.7455342 13.2069371,32.219266 C13.2069371,31.692968 12.7803221,31.2663231 12.254024,31.2663231" id="Fill-98"></path>
                    <path d="M6.60347003,33.8693565 C6.07717197,33.8693565 5.65055701,34.2960013 5.65055701,34.8222994 C5.65055701,35.3485675 6.07717197,35.7751825 6.60347003,35.7751825 C7.12976809,35.7751825 7.55638305,35.3485675 7.55638305,34.8222994 C7.55638305,34.2960013 7.12976809,33.8693565 6.60347003,33.8693565" id="Fill-100"></path>
                    <path d="M15.0793011,33.8693565 L9.42874704,33.8693565 C8.90244898,33.8693565 8.47583402,34.2960013 8.47583402,34.8222994 C8.47583402,35.3485675 8.90244898,35.7751825 9.42874704,35.7751825 L15.0793011,35.7751825 C15.6055991,35.7751825 16.0322141,35.3485675 16.0322141,34.8222994 C16.0322141,34.2960013 15.6055991,33.8693565 15.0793011,33.8693565" id="Fill-102"></path>
                    <path d="M6.60347003,36.4723868 C6.07717197,36.4723868 5.65055701,36.8990317 5.65055701,37.4253298 L5.65055701,42.6313785 C5.65055701,43.1576466 6.07717197,43.5842915 6.60347003,43.5842915 C7.12976809,43.5842915 7.55638305,43.1576466 7.55638305,42.6313785 L7.55638305,37.4253298 C7.55638305,36.8990317 7.12976809,36.4723868 6.60347003,36.4723868" id="Fill-104"></path>
                    <path d="M12.254024,36.4723868 L9.42873208,36.4723868 C8.90246393,36.4723868 8.47584898,36.8990317 8.47584898,37.4253298 C8.47584898,37.951568 8.90246393,38.3782129 9.42873208,38.3782129 L12.254024,38.3782129 C12.7803221,38.3782129 13.2069371,37.951568 13.2069371,37.4253298 C13.2069371,36.8990317 12.7803221,36.4723868 12.254024,36.4723868" id="Fill-106"></path>
                    <path d="M15.0793011,36.4723868 C14.553003,36.4723868 14.126388,36.8990317 14.126388,37.4253298 C14.126388,37.951568 14.553003,38.3782129 15.0793011,38.3782129 C15.6055991,38.3782129 16.0322141,37.951568 16.0322141,37.4253298 C16.0322141,36.8990317 15.6055991,36.4723868 15.0793011,36.4723868" id="Fill-108"></path>
                    <path d="M12.254024,39.0754202 C11.727726,39.0754202 11.301111,39.502065 11.301111,40.0283631 C11.301111,40.5546013 11.727726,40.9812462 12.254024,40.9812462 C12.7803221,40.9812462 13.2069371,40.5546013 13.2069371,40.0283631 C13.2069371,39.502065 12.7803221,39.0754202 12.254024,39.0754202" id="Fill-110"></path>
                    <path d="M3.77819302,41.6784535 C3.25189496,41.6784535 2.82528,42.1050984 2.82528,42.6313965 C2.82528,43.1576347 3.25189496,43.5842796 3.77819302,43.5842796 C4.30449108,43.5842796 4.73110604,43.1576347 4.73110604,42.6313965 C4.73110604,42.1050984 4.30449108,41.6784535 3.77819302,41.6784535" id="Fill-112"></path>
                    <path d="M12.254024,41.6784535 C11.727726,41.6784535 11.301111,42.1050984 11.301111,42.6313965 C11.301111,43.1576347 11.727726,43.5842796 12.254024,43.5842796 C12.7803221,43.5842796 13.2069371,43.1576347 13.2069371,42.6313965 C13.2069371,42.1050984 12.7803221,41.6784535 12.254024,41.6784535" id="Fill-114"></path>
                    <path d="M15.0793011,41.6784535 C14.553003,41.6784535 14.126388,42.1050984 14.126388,42.6313965 L14.126388,50.4404546 C14.126388,50.9667527 14.553003,51.3933676 15.0793011,51.3933676 C15.6055991,51.3933676 16.0322141,50.9667527 16.0322141,50.4404546 L16.0322141,42.6313965 C16.0322141,42.1050984 15.6055991,41.6784535 15.0793011,41.6784535" id="Fill-116"></path>
                    <path d="M0.952916011,46.1873159 L6.60347003,46.1873159 C7.12976809,46.1873159 7.55638305,45.760671 7.55638305,45.2344029 C7.55638305,44.7081347 7.12976809,44.2814899 6.60347003,44.2814899 L0.952916011,44.2814899 C0.42661795,44.2814899 2.99168975e-06,44.7081347 2.99168975e-06,45.2344029 C2.99168975e-06,45.760671 0.42661795,46.1873159 0.952916011,46.1873159" id="Fill-118"></path>
                    <path d="M9.42874704,46.1873159 C9.9550451,46.1873159 10.3816601,45.760671 10.3816601,45.2344029 L10.3816601,40.0283541 C10.3816601,39.5020561 9.9550451,39.0754112 9.42874704,39.0754112 C8.90244898,39.0754112 8.47583402,39.5020561 8.47583402,40.0283541 L8.47583402,45.2344029 C8.47583402,45.760671 8.90244898,46.1873159 9.42874704,46.1873159" id="Fill-120"></path>
                    <path d="M12.254024,44.2814869 C11.727726,44.2814869 11.301111,44.7081317 11.301111,45.2344298 C11.301111,45.760668 11.727726,46.1873129 12.254024,46.1873129 C12.7803221,46.1873129 13.2069371,45.760668 13.2069371,45.2344298 C13.2069371,44.7081317 12.7803221,44.2814869 12.254024,44.2814869" id="Fill-122"></path>
                    <path d="M0.952916011,46.8845202 C0.42661795,46.8845202 2.99168975e-06,47.3111651 2.99168975e-06,47.8374332 C2.99168975e-06,48.3637014 0.42661795,48.7903463 0.952916011,48.7903463 C1.47921407,48.7903463 1.90582903,48.3637014 1.90582903,47.8374332 C1.90582903,47.3111651 1.47921407,46.8845202 0.952916011,46.8845202" id="Fill-124"></path>
                    <path d="M12.254024,46.8845202 L3.77820798,46.8845202 C3.25190992,46.8845202 2.82529496,47.3111651 2.82529496,47.8374332 C2.82529496,48.3637014 3.25190992,48.7903463 3.77820798,48.7903463 L12.254024,48.7903463 C12.7803221,48.7903463 13.2069371,48.3637014 13.2069371,47.8374332 C13.2069371,47.3111651 12.7803221,46.8845202 12.254024,46.8845202" id="Fill-126"></path>
                    <path d="M6.60347003,51.3933826 L9.42876199,51.3933826 C9.95503014,51.3933826 10.3816451,50.9667377 10.3816451,50.4404397 C10.3816451,49.9142014 9.95503014,49.4875566 9.42876199,49.4875566 L6.60347003,49.4875566 C6.07717197,49.4875566 5.65055701,49.9142014 5.65055701,50.4404397 C5.65055701,50.9667377 6.07717197,51.3933826 6.60347003,51.3933826" id="Fill-128"></path>
                    <path d="M12.254024,49.4875536 C11.727726,49.4875536 11.301111,49.9141984 11.301111,50.4404666 C11.301111,50.9667347 11.727726,51.3933796 12.254024,51.3933796 C12.7803221,51.3933796 13.2069371,50.9667347 13.2069371,50.4404666 C13.2069371,49.9141984 12.7803221,49.4875536 12.254024,49.4875536" id="Fill-130"></path>
                    <path d="M3.77819302,52.0905869 C3.25189496,52.0905869 2.82528,52.5172318 2.82528,53.0434999 C2.82528,53.5697681 3.25189496,53.996413 3.77819302,53.996413 C4.30449108,53.996413 4.73110604,53.5697681 4.73110604,53.0434999 C4.73110604,52.5172318 4.30449108,52.0905869 3.77819302,52.0905869" id="Fill-132"></path>
                    <path d="M12.254024,52.0905869 L6.60347003,52.0905869 C6.07717197,52.0905869 5.65055701,52.5172318 5.65055701,53.0434999 C5.65055701,53.5697681 6.07717197,53.996413 6.60347003,53.996413 L12.254024,53.996413 C12.7803221,53.996413 13.2069371,53.5697681 13.2069371,53.0434999 C13.2069371,52.5172318 12.7803221,52.0905869 12.254024,52.0905869" id="Fill-135"></path>
                    <path d="M12.254024,12.3479182 C12.7803221,12.3479182 13.2069371,11.9212734 13.2069371,11.3950052 C13.2069371,10.8687371 12.7803221,10.4420922 12.254024,10.4420922 L9.42873208,10.4420922 C8.90246393,10.4420922 8.47584898,10.8687371 8.47584898,11.3950052 C8.47584898,11.9212734 8.90246393,12.3479182 9.42873208,12.3479182 L12.254024,12.3479182 Z" id="Fill-138"></path>
                    <path d="M5.65056898,27.0131844 C5.65056898,27.5394824 6.07718393,27.9661273 6.60348199,27.9661273 C7.12975014,27.9661273 7.5563651,27.5394824 7.5563651,27.0131844 L7.5563651,21.8071057 C7.5563651,21.2808675 7.12975014,20.8542226 6.60348199,20.8542226 C6.07718393,20.8542226 5.65056898,21.2808675 5.65056898,21.8071057 L5.65056898,27.0131844 Z" id="Fill-140"></path>
                    <path d="M4.73109108,27.0131844 C4.73109108,26.4869162 4.30447612,26.0602714 3.77817806,26.0602714 C3.25190992,26.0602714 2.82529496,26.4869162 2.82529496,27.0131844 L2.82529496,34.8222725 C2.82529496,35.3485705 3.25190992,35.7751855 3.77817806,35.7751855 C4.30447612,35.7751855 4.73109108,35.3485705 4.73109108,34.8222725 L4.73109108,27.0131844 Z" id="Fill-142"></path>
                    <path d="M4.73109108,37.4253178 C4.73109108,36.8990197 4.30447612,36.4723748 3.77817806,36.4723748 C3.25190992,36.4723748 2.82529496,36.8990197 2.82529496,37.4253178 L2.82529496,40.0283571 C2.82529496,40.5546253 3.25190992,40.9812402 3.77817806,40.9812402 C4.30447612,40.9812402 4.73109108,40.5546253 4.73109108,40.0283571 L4.73109108,37.4253178 Z" id="Fill-144"></path>
                </g>
            </g>
        </g>
    </g>
</svg>