<?xml version="1.0" encoding="utf-8"?>
<svg width="33px" height="55px" viewBox="0 0 33 55" version="1.1" xmlns="http://www.w3.org/2000/svg">
  <title>logo</title>
  <desc>Created with Sketch.</desc>
  <g id="Symbols" stroke="none" stroke-width="1" fill="none" fill-rule="evenodd">
    <g id="Header" transform="translate(-40.000000, 0.000000)">
      <g id="logo" transform="translate(40.000000, 0.000000)">
        <g>
          <path d="M20.7749,1.9002 C21.2749,1.9002 21.7749,1.5002 21.7749,0.9002 C21.7749,0.2992 21.2749,0.0002 20.7749,0.0002 C20.2749,0.0002 19.7749,0.4002 19.7749,1.0002 C19.7749,1.6002 20.1749,1.9002 20.7749,1.9002" id="Fill-1" fill="#BFD36C"/>
          <path d="M3.7998,4.4735 L6.5998,4.4735 C7.0998,4.4735 7.5998,4.0745 7.5998,3.4735 C7.5998,2.8735 7.1998,2.4735 6.5998,2.4735 L3.7998,2.4735 C3.2998,2.4735 2.7998,2.8735 2.7998,3.4735 C2.7998,4.0745 3.2998,4.4735 3.7998,4.4735" id="Fill-4" fill="#FCF059"/>
          <path d="M17.8999,4.4735 L20.6999,4.4735 C21.1999,4.4735 21.6999,4.0745 21.6999,3.4735 C21.6999,2.8735 21.2999,2.4735 20.6999,2.4735 L17.8999,2.4735 C17.3999,2.4735 16.8999,2.8735 16.8999,3.4735 C16.8999,4.0745 17.3999,4.4735 17.8999,4.4735" id="Fill-6" fill="#F2A755"/>
          <path d="M1,7.074 C1.5,7.074 2,6.674 2,6.074 C2,5.574 1.6,5.074 1,5.074 C0.4,5.074 0,5.473 0,6.074 C0,6.674 0.4,7.074 1,7.074" id="Fill-8" fill="#4DD1DB"/>
          <path d="M3.7998,7.074 L9.4998,7.074 C9.9998,7.074 10.4998,6.674 10.4998,6.074 C10.4998,5.574 10.0998,5.074 9.4998,5.074 L3.7998,5.074 C3.2998,5.074 2.7998,5.473 2.7998,6.074 C2.7998,6.674 3.2998,7.074 3.7998,7.074" id="Fill-10" fill="#BFD36C"/>
          <path d="M15.1001,7.074 C15.6001,7.074 16.1001,6.674 16.1001,6.074 C16.1001,5.574 15.7001,5.074 15.1001,5.074 C14.6001,5.074 14.1001,5.473 14.1001,6.074 C14.1001,6.674 14.6001,7.074 15.1001,7.074" id="Fill-12" fill="#FCF059"/>
          <path d="M1,9.6737 C1.5,9.6737 2,9.2737 2,8.6737 C2,8.0737 1.6,7.6737 1,7.6737 C0.4,7.6737 0,8.0737 0,8.6737 C0,9.2737 0.4,9.6737 1,9.6737" id="Fill-14" fill="#BFD36C"/>
          <path d="M3.7998,9.6737 L9.4998,9.6737 C9.9998,9.6737 10.4998,9.2737 10.4998,8.6737 C10.4998,8.0737 10.0998,7.6737 9.4998,7.6737 L3.7998,7.6737 C3.2998,7.6737 2.7998,8.0737 2.7998,8.6737 C2.7998,9.2737 3.2998,9.6737 3.7998,9.6737" id="Fill-16" fill="#FCF059"/>
          <path d="M12.2998,9.6737 C12.7998,9.6737 13.2998,9.2737 13.2998,8.6737 C13.2998,8.0737 12.8998,7.6737 12.2998,7.6737 C11.7998,7.6737 11.2998,8.0737 11.2998,8.6737 C11.2998,9.2737 11.6998,9.6737 12.2998,9.6737" id="Fill-18" fill="#F2A755"/>
          <path d="M3.7998,12.2733 C4.2998,12.2733 4.7998,11.8743 4.7998,11.2733 C4.7998,10.6733 4.3998,10.2733 3.7998,10.2733 C3.1998,10.2733 2.7998,10.6733 2.7998,11.2733 C2.7998,11.8743 3.2998,12.2733 3.7998,12.2733" id="Fill-20" fill="#F2A755"/>
          <path d="M6.6001,12.2733 C7.1001,12.2733 7.6001,11.8743 7.6001,11.2733 C7.6001,10.6733 7.2001,10.2733 6.6001,10.2733 C6.0001,10.2733 5.6001,10.6733 5.6001,11.2733 C5.6001,11.8743 6.1001,12.2733 6.6001,12.2733" id="Fill-22" fill="#4DD1DB"/>
          <path d="M15.1001,12.2733 C15.6001,12.2733 16.1001,11.8743 16.1001,11.2733 L16.1001,8.7733 C16.1001,8.2733 15.7001,7.7733 15.1001,7.7733 C14.6001,7.7733 14.1001,8.1733 14.1001,8.7733 L14.1001,11.3743 C14.1001,11.8743 14.6001,12.2733 15.1001,12.2733" id="Fill-24" fill="#BFD36C"/>
          <path d="M23.6001,10.3739 C23.1001,10.3739 22.6001,10.7729 22.6001,11.3739 L22.6001,13.9739 C22.6001,14.4739 23.0001,14.9739 23.6001,14.9739 C24.2001,14.9739 24.6001,14.5739 24.6001,13.9739 L24.6001,11.3739 C24.5001,10.8739 24.1001,10.3739 23.6001,10.3739" id="Fill-26" fill="#BFD36C"/>
          <path d="M26.3999,10.3739 C25.8999,10.3739 25.3999,10.7729 25.3999,11.3739 C25.3999,11.8739 25.7999,12.3739 26.3999,12.3739 C26.9999,12.3739 27.3999,11.9739 27.3999,11.3739 C27.2999,10.8739 26.8999,10.3739 26.3999,10.3739" id="Fill-28" fill="#FCF059"/>
          <path d="M29.2002,12.2733 L32.0002,12.2733 C32.5002,12.2733 33.0002,11.8743 33.0002,11.2733 C33.0002,10.6733 32.6002,10.2733 32.0002,10.2733 L29.2002,10.2733 C28.7002,10.2733 28.2002,10.6733 28.2002,11.2733 C28.2002,11.8743 28.7002,12.2733 29.2002,12.2733" id="Fill-30" fill="#F2A755"/>
          <path d="M13.2002,13.9735 C13.2002,13.4735 12.8002,12.9735 12.2002,12.9735 L6.6002,12.9735 C6.1002,12.9735 5.6002,13.3735 5.6002,13.9735 C5.6002,14.4735 6.0002,14.9735 6.6002,14.9735 L12.3002,14.9735 C12.8002,14.9735 13.2002,14.4735 13.2002,13.9735" id="Fill-33" fill="#4DD1DB"/>
          <path d="M15.1001,14.9735 C15.6001,14.9735 16.1001,14.5745 16.1001,13.9735 C16.1001,13.3735 15.7001,12.9735 15.1001,12.9735 C14.6001,12.9735 14.1001,13.3735 14.1001,13.9735 C14.1001,14.5745 14.6001,14.9735 15.1001,14.9735" id="Fill-35" fill="#FCF059"/>
          <path d="M17.8999,14.9735 C18.3999,14.9735 18.8999,14.5745 18.8999,13.9735 L18.8999,6.1735 C18.8999,5.6735 18.4999,5.1735 17.8999,5.1735 C17.3999,5.1735 16.8999,5.5745 16.8999,6.1735 L16.8999,13.9735 C16.9999,14.4735 17.3999,14.9735 17.8999,14.9735" id="Fill-37" fill="#4DD1DB"/>
          <path d="M20.7002,12.9735 C20.2002,12.9735 19.7002,13.3735 19.7002,13.9735 L19.7002,16.5745 C19.7002,17.0745 20.1002,17.5745 20.7002,17.5745 C21.3002,17.5745 21.7002,17.1735 21.7002,16.5745 L21.7002,13.9735 C21.7002,13.4735 21.3002,12.9735 20.7002,12.9735" id="Fill-39" fill="#F2A755"/>
          <path d="M26.3999,12.9735 C25.8999,12.9735 25.3999,13.3735 25.3999,13.9735 L25.3999,21.7735 C25.3999,22.2735 25.7999,22.7735 26.3999,22.7735 C26.9999,22.7735 27.3999,22.3735 27.3999,21.7735 L27.3999,13.9735 C27.2999,13.4735 26.8999,12.9735 26.3999,12.9735" id="Fill-41" fill="#BFD36C"/>
          <path d="M29.2002,12.9735 C28.7002,12.9735 28.2002,13.3735 28.2002,13.9735 C28.2002,14.4735 28.6002,14.9735 29.2002,14.9735 C29.8002,14.9735 30.2002,14.5745 30.2002,13.9735 C30.2002,13.4735 29.7002,12.9735 29.2002,12.9735" id="Fill-43" fill="#FCF059"/>
          <path d="M32,12.9735 C31.5,12.9735 31,13.3735 31,13.9735 C31,14.4735 31.4,14.9735 32,14.9735 C32.6,14.9735 33,14.5745 33,13.9735 C33,13.4735 32.6,12.9735 32,12.9735" id="Fill-45" fill="#4DD1DB"/>
          <path d="M6.6001,17.574 C7.1001,17.574 7.6001,17.174 7.6001,16.574 C7.6001,15.973 7.2001,15.574 6.6001,15.574 C6.0001,15.574 5.6001,15.973 5.6001,16.574 C5.6001,17.174 6.1001,17.574 6.6001,17.574" id="Fill-47" fill="#BFD36C"/>
          <path d="M8.5,16.574 C8.5,17.074 8.9,17.574 9.5,17.574 C10,17.574 10.5,17.174 10.5,16.574 C10.5,16.074 10.1,15.574 9.5,15.574 C8.9,15.574 8.5,16.074 8.5,16.574" id="Fill-49" fill="#FCF059"/>
          <path d="M12.2998,17.574 L17.9998,17.574 C18.4998,17.574 18.9998,17.174 18.9998,16.574 C18.9998,15.973 18.5998,15.574 17.9998,15.574 L12.2998,15.574 C11.7998,15.574 11.2998,15.973 11.2998,16.574 C11.2998,17.174 11.6998,17.574 12.2998,17.574" id="Fill-51" fill="#F2A755"/>
          <path d="M23.6001,15.574 C23.1001,15.574 22.6001,15.973 22.6001,16.574 C22.6001,17.074 23.0001,17.574 23.6001,17.574 C24.2001,17.574 24.6001,17.174 24.6001,16.574 C24.5001,16.074 24.1001,15.574 23.6001,15.574" id="Fill-53" fill="#4DD1DB"/>
          <path d="M29.2002,15.574 C28.7002,15.574 28.2002,15.973 28.2002,16.574 C28.2002,17.074 28.6002,17.574 29.2002,17.574 C29.8002,17.574 30.2002,17.174 30.2002,16.574 C30.2002,16.074 29.7002,15.574 29.2002,15.574" id="Fill-55" fill="#F2A755"/>
          <path d="M1,20.1737 L3.8,20.1737 C4.3,20.1737 4.8,19.7737 4.8,19.1737 C4.8,18.6737 4.4,18.1737 3.8,18.1737 L1,18.1737 C0.5,18.1737 0,18.5737 0,19.1737 C0,19.6737 0.4,20.1737 1,20.1737" id="Fill-57" fill="#FCF059"/>
          <path d="M6.6001,20.1737 C7.1001,20.1737 7.6001,19.7737 7.6001,19.1737 C7.6001,18.6737 7.2001,18.1737 6.6001,18.1737 C6.0001,18.1737 5.6001,18.5737 5.6001,19.1737 C5.7001,19.6737 6.1001,20.1737 6.6001,20.1737" id="Fill-59" fill="#F2A755"/>
          <path d="M23.6001,18.2733 L9.4001,18.2733 C8.9001,18.2733 8.4001,18.6733 8.4001,19.2733 C8.4001,19.8743 8.8001,20.2733 9.4001,20.2733 L23.5001,20.2733 C24.0001,20.2733 24.5001,19.8743 24.5001,19.2733 C24.5001,18.6733 24.1001,18.2733 23.6001,18.2733" id="Fill-61" fill="#FCF059"/>
          <path d="M29.2002,18.2733 C28.7002,18.2733 28.2002,18.6733 28.2002,19.2733 C28.2002,19.8743 28.6002,20.2733 29.2002,20.2733 C29.8002,20.2733 30.2002,19.8743 30.2002,19.2733 C30.2002,18.6733 29.7002,18.2733 29.2002,18.2733" id="Fill-63" fill="#4DD1DB"/>
          <path d="M32,18.2733 C31.5,18.2733 31,18.6733 31,19.2733 C31,19.8743 31.4,20.2733 32,20.2733 C32.6,20.2733 33,19.8743 33,19.2733 C33,18.6733 32.6,18.2733 32,18.2733" id="Fill-65" fill="#BFD36C"/>
          <path d="M9.3999,20.8739 C8.8999,20.8739 8.3999,21.2729 8.3999,21.8739 C8.3999,22.3739 8.7999,22.8739 9.3999,22.8739 C9.8999,22.8739 10.3999,22.4739 10.3999,21.8739 C10.3999,21.2729 9.9999,20.8739 9.3999,20.8739" id="Fill-67" fill="#4DD1DB"/>
          <path d="M17.8999,20.8739 L12.1999,20.8739 C11.6999,20.8739 11.1999,21.2729 11.1999,21.8739 C11.1999,22.3739 11.5999,22.8739 12.1999,22.8739 L17.8999,22.8739 C18.3999,22.8739 18.8999,22.4739 18.8999,21.8739 C18.8999,21.2729 18.3999,20.8739 17.8999,20.8739" id="Fill-69" fill="#BFD36C"/>
          <path d="M20.7002,20.8739 C20.2002,20.8739 19.7002,21.2729 19.7002,21.8739 C19.7002,22.3739 20.1002,22.8739 20.7002,22.8739 C21.3002,22.8739 21.7002,22.4739 21.7002,21.8739 C21.7002,21.2729 21.3002,20.8739 20.7002,20.8739" id="Fill-71" fill="#FCF059"/>
          <path d="M23.6001,20.8739 C23.1001,20.8739 22.6001,21.2729 22.6001,21.8739 C22.6001,22.3739 23.0001,22.8739 23.6001,22.8739 C24.2001,22.8739 24.6001,22.4739 24.6001,21.8739 C24.5001,21.2729 24.1001,20.8739 23.6001,20.8739" id="Fill-73" fill="#F2A755"/>
          <path d="M29.2002,20.8739 C28.7002,20.8739 28.2002,21.2729 28.2002,21.8739 L28.2002,24.4739 C28.2002,24.9739 28.6002,25.4739 29.2002,25.4739 C29.8002,25.4739 30.2002,25.0739 30.2002,24.4739 L30.2002,21.8739 C30.2002,21.2729 29.7002,20.8739 29.2002,20.8739" id="Fill-75" fill="#4DD1DB"/>
          <path d="M32,20.8739 C31.5,20.8739 31,21.2729 31,21.8739 C31,22.3739 31.4,22.8739 32,22.8739 C32.6,22.8739 33,22.4739 33,21.8739 C33,21.2729 32.6,20.8739 32,20.8739" id="Fill-77" fill="#FCF059"/>
          <path d="M3.7998,23.4735 C3.2998,23.4735 2.7998,23.8735 2.7998,24.4735 C2.7998,25.0745 3.1998,25.4735 3.7998,25.4735 C4.3998,25.4735 4.7998,25.0745 4.7998,24.4735 C4.7998,23.8735 4.2998,23.4735 3.7998,23.4735" id="Fill-79" fill="#4DD1DB"/>
          <path d="M12.2998,23.4735 L9.3998,23.4735 C8.8998,23.4735 8.3998,23.8735 8.3998,24.4735 C8.3998,25.0745 8.7998,25.4735 9.3998,25.4735 L12.1998,25.4735 C12.6998,25.4735 13.1998,25.0745 13.1998,24.4735 C13.1998,23.8735 12.7998,23.4735 12.2998,23.4735" id="Fill-81" fill="#FCF059"/>
          <path d="M15.1001,23.4735 C14.6001,23.4735 14.1001,23.8735 14.1001,24.4735 C14.1001,25.0745 14.5001,25.4735 15.1001,25.4735 C15.6001,25.4735 16.1001,25.0745 16.1001,24.4735 C16.1001,23.8735 15.6001,23.4735 15.1001,23.4735" id="Fill-83" fill="#4DD1DB"/>
          <path d="M26.3999,23.4735 C25.8999,23.4735 25.3999,23.8735 25.3999,24.4735 C25.3999,25.0745 25.7999,25.4735 26.3999,25.4735 C26.9999,25.4735 27.3999,25.0745 27.3999,24.4735 C27.3999,23.8735 26.8999,23.4735 26.3999,23.4735" id="Fill-85" fill="#FCF059"/>
          <path d="M9.3999,27.9735 C9.8999,27.9735 10.3999,27.5745 10.3999,26.9735 C10.3999,26.4735 9.9999,25.9735 9.3999,25.9735 C8.8999,25.9735 8.3999,26.3735 8.3999,26.9735 C8.4999,27.4735 8.8999,27.9735 9.3999,27.9735" id="Fill-87" fill="#4DD1DB"/>
          <path d="M12.2998,26.074 C11.7998,26.074 11.2998,26.473 11.2998,27.074 C11.2998,27.674 11.6998,28.074 12.2998,28.074 C12.7998,28.074 13.2998,27.674 13.2998,27.074 C13.2998,26.473 12.7998,26.074 12.2998,26.074" id="Fill-89" fill="#F2A755"/>
          <path d="M6.6001,30.574 C7.1001,30.574 7.6001,30.174 7.6001,29.574 C7.6001,29.074 7.2001,28.574 6.6001,28.574 C6.0001,28.574 5.6001,28.973 5.6001,29.574 C5.7001,30.074 6.1001,30.574 6.6001,30.574" id="Fill-91" fill="#FCF059"/>
          <path d="M12.2998,28.6737 L9.3998,28.6737 C8.8998,28.6737 8.3998,29.0737 8.3998,29.6737 C8.3998,30.1737 8.7998,30.6737 9.3998,30.6737 L12.1998,30.6737 C12.6998,30.6737 13.1998,30.2737 13.1998,29.6737 C13.1998,29.0737 12.7998,28.6737 12.2998,28.6737" id="Fill-93" fill="#4DD1DB"/>
          <path d="M15.1001,28.6737 C14.6001,28.6737 14.1001,29.0737 14.1001,29.6737 C14.1001,30.1737 14.5001,30.6737 15.1001,30.6737 C15.6001,30.6737 16.1001,30.2737 16.1001,29.6737 C16.0001,29.0737 15.6001,28.6737 15.1001,28.6737" id="Fill-95" fill="#F2A755"/>
          <path d="M10.3999,32.1737 C10.3999,31.6737 9.9999,31.1737 9.3999,31.1737 L6.5999,31.1737 C6.0999,31.1737 5.5999,31.5737 5.5999,32.1737 C5.5999,32.6737 5.9999,33.1737 6.5999,33.1737 L9.3999,33.1737 C9.9999,33.1737 10.3999,32.6737 10.3999,32.1737" id="Fill-97" fill="#F2A755"/>
          <path d="M12.2998,31.2733 C11.7998,31.2733 11.2998,31.6733 11.2998,32.2733 C11.2998,32.7733 11.6998,33.2733 12.2998,33.2733 C12.7998,33.2733 13.2998,32.8743 13.2998,32.2733 C13.1998,31.6733 12.7998,31.2733 12.2998,31.2733" id="Fill-99" fill="#BFD36C"/>
          <path d="M6.6001,33.8739 C6.1001,33.8739 5.6001,34.2729 5.6001,34.8739 C5.6001,35.3739 6.0001,35.8739 6.6001,35.8739 C7.2001,35.8739 7.6001,35.4739 7.6001,34.8739 C7.6001,34.2729 7.1001,33.8739 6.6001,33.8739" id="Fill-101" fill="#FCF059"/>
          <path d="M15.1001,33.8739 L9.4001,33.8739 C8.9001,33.8739 8.4001,34.2729 8.4001,34.8739 C8.4001,35.3739 8.8001,35.8739 9.4001,35.8739 L15.1001,35.8739 C15.6001,35.8739 16.1001,35.4739 16.1001,34.8739 C16.0001,34.2729 15.6001,33.8739 15.1001,33.8739" id="Fill-103" fill="#BFD36C"/>
          <path d="M6.6001,36.4735 C6.1001,36.4735 5.6001,36.8735 5.6001,37.4735 L5.6001,42.6735 C5.6001,43.1735 6.0001,43.6735 6.6001,43.6735 C7.2001,43.6735 7.6001,43.2735 7.6001,42.6735 L7.6001,37.4735 C7.6001,36.8735 7.1001,36.4735 6.6001,36.4735" id="Fill-105" fill="#4DD1DB"/>
          <path d="M12.2998,36.4735 L9.3998,36.4735 C8.8998,36.4735 8.3998,36.8735 8.3998,37.4735 C8.3998,37.9735 8.7998,38.4735 9.3998,38.4735 L12.1998,38.4735 C12.6998,38.4735 13.1998,38.0745 13.1998,37.4735 C13.1998,36.8735 12.7998,36.4735 12.2998,36.4735" id="Fill-107" fill="#F2A755"/>
          <path d="M15.1001,36.4735 C14.6001,36.4735 14.1001,36.8735 14.1001,37.4735 C14.1001,37.9735 14.5001,38.4735 15.1001,38.4735 C15.6001,38.4735 16.1001,38.0745 16.1001,37.4735 C16.0001,36.8735 15.6001,36.4735 15.1001,36.4735" id="Fill-109" fill="#4DD1DB"/>
          <path d="M12.2998,39.074 C11.7998,39.074 11.2998,39.473 11.2998,40.074 C11.2998,40.574 11.6998,41.074 12.2998,41.074 C12.7998,41.074 13.2998,40.674 13.2998,40.074 C13.1998,39.473 12.7998,39.074 12.2998,39.074" id="Fill-111" fill="#FCF059"/>
          <path d="M3.7998,41.6737 C3.2998,41.6737 2.7998,42.0737 2.7998,42.6737 C2.7998,43.1737 3.1998,43.6737 3.7998,43.6737 C4.3998,43.6737 4.7998,43.2737 4.7998,42.6737 C4.6998,42.0737 4.2998,41.6737 3.7998,41.6737" id="Fill-113" fill="#F2A755"/>
          <path d="M12.2998,41.6737 C11.7998,41.6737 11.2998,42.0737 11.2998,42.6737 C11.2998,43.1737 11.6998,43.6737 12.2998,43.6737 C12.7998,43.6737 13.2998,43.2737 13.2998,42.6737 C13.1998,42.0737 12.7998,41.6737 12.2998,41.6737" id="Fill-115" fill="#F2A755"/>
          <path d="M15.1001,41.6737 C14.6001,41.6737 14.1001,42.0737 14.1001,42.6737 L14.1001,50.4737 C14.1001,50.9737 14.5001,51.4737 15.1001,51.4737 C15.6001,51.4737 16.1001,51.0737 16.1001,50.4737 L16.1001,42.6737 C16.0001,42.0737 15.6001,41.6737 15.1001,41.6737" id="Fill-117" fill="#BFD36C"/>
          <path d="M1,46.1737 L6.7,46.1737 C7.2,46.1737 7.7,45.7737 7.7,45.1737 C7.7,44.5737 7.3,44.1737 6.7,44.1737 L1,44.1737 C0.5,44.1737 0,44.5737 0,45.1737 C0,45.7737 0.4,46.1737 1,46.1737" id="Fill-119" fill="#F2A755"/>
          <path d="M9.3999,46.1737 C9.8999,46.1737 10.3999,45.7737 10.3999,45.1737 L10.3999,39.9737 C10.3999,39.4737 9.9999,38.9737 9.3999,38.9737 C8.8999,38.9737 8.3999,39.3737 8.3999,39.9737 L8.3999,45.1737 C8.4999,45.7737 8.8999,46.1737 9.3999,46.1737" id="Fill-121" fill="#BFD36C"/>
          <path d="M12.2998,44.2733 C11.7998,44.2733 11.2998,44.6733 11.2998,45.2733 C11.2998,45.7733 11.6998,46.2733 12.2998,46.2733 C12.7998,46.2733 13.2998,45.8743 13.2998,45.2733 C13.1998,44.6733 12.7998,44.2733 12.2998,44.2733" id="Fill-123" fill="#FCF059"/>
          <path d="M1,46.8739 C0.5,46.8739 0,47.2729 0,47.8739 C0,48.4739 0.4,48.8739 1,48.8739 C1.6,48.8739 2,48.4739 2,47.8739 C2,47.2729 1.5,46.8739 1,46.8739" id="Fill-125" fill="#FCF059"/>
          <path d="M12.2998,46.8739 L3.7998,46.8739 C3.2998,46.8739 2.7998,47.2729 2.7998,47.8739 C2.7998,48.4739 3.1998,48.8739 3.7998,48.8739 L12.2998,48.8739 C12.7998,48.8739 13.2998,48.4739 13.2998,47.8739 C13.2998,47.2729 12.7998,46.8739 12.2998,46.8739" id="Fill-127" fill="#4DD1DB"/>
          <path d="M6.6001,51.3739 L9.4001,51.3739 C9.9001,51.3739 10.4001,50.9739 10.4001,50.3739 C10.4001,49.8739 10.0001,49.3739 9.4001,49.3739 L6.6001,49.3739 C6.1001,49.3739 5.6001,49.7729 5.6001,50.3739 C5.7001,50.9739 6.1001,51.3739 6.6001,51.3739" id="Fill-129" fill="#F2A755"/>
          <path d="M12.2998,49.4735 C11.7998,49.4735 11.2998,49.8735 11.2998,50.4735 C11.2998,51.0745 11.6998,51.4735 12.2998,51.4735 C12.7998,51.4735 13.2998,51.0745 13.2998,50.4735 C13.2998,49.8735 12.7998,49.4735 12.2998,49.4735" id="Fill-131" fill="#FCF059"/>
          <path d="M3.812,52.0555 C3.212,52.0555 2.812,52.4555 2.812,53.0555 C2.812,53.6555 3.212,54.0555 3.812,54.0555 C4.412,54.0555 4.812,53.6555 4.812,53.0555 C4.812,52.4555 4.312,52.0555 3.812,52.0555" id="Fill-133" fill="#4DD1DB"/>
          <path d="M12.2246,52.0555 L6.6246,52.0555 C6.1246,52.0555 5.6246,52.4555 5.6246,53.0555 C5.6246,53.6555 6.0246,54.0555 6.6246,54.0555 L12.3246,54.0555 C12.8246,54.0555 13.3246,53.6555 13.3246,53.0555 C13.3246,52.4555 12.8246,52.0555 12.2246,52.0555" id="Fill-136" fill="#BFD36C"/>
          <path d="M12.2998,12.2733 C12.7998,12.2733 13.2998,11.8743 13.2998,11.2733 C13.2998,10.6733 12.8998,10.2733 12.2998,10.2733 L9.3998,10.2733 C8.8998,10.2733 8.3998,10.6733 8.3998,11.2733 C8.3998,11.8743 8.7998,12.2733 9.3998,12.2733 L12.2998,12.2733 Z" id="Fill-139" fill="#FCF059"/>
          <path d="M5.7002,26.9735 C5.7002,27.4735 6.1002,27.9735 6.7002,27.9735 C7.2002,27.9735 7.7002,27.5745 7.7002,26.9735 L7.7002,21.7735 C7.7002,21.2735 7.3002,20.7735 6.7002,20.7735 C6.2002,20.7735 5.7002,21.1735 5.7002,21.7735 L5.7002,26.9735 Z" id="Fill-141" fill="#F2A755"/>
          <path d="M4.7002,26.9735 C4.7002,26.4735 4.3002,25.9735 3.7002,25.9735 C3.2002,25.9735 2.7002,26.3735 2.7002,26.9735 L2.7002,34.7735 C2.7002,35.2735 3.1002,35.7735 3.7002,35.7735 C4.2002,35.7735 4.7002,35.3735 4.7002,34.7735 L4.7002,26.9735 Z" id="Fill-143" fill="#BFD36C"/>
          <path d="M4.7002,37.3739 C4.7002,36.8739 4.3002,36.3739 3.7002,36.3739 C3.2002,36.3739 2.7002,36.7729 2.7002,37.3739 L2.7002,39.9739 C2.7002,40.4739 3.1002,40.9739 3.7002,40.9739 C4.2002,40.9739 4.7002,40.5739 4.7002,39.9739 L4.7002,37.3739 Z" id="Fill-145" fill="#FCF059"/>
        </g>
      </g>
    </g>
  </g>
</svg>