<?xml version="1.0" encoding="UTF-8"?>
<svg width="13px" height="22px" viewBox="0 0 13 22" version="1.1" xmlns="http://www.w3.org/2000/svg" xmlns:xlink="http://www.w3.org/1999/xlink">
    <!-- Generator: Sketch 52.5 (67469) - http://www.bohemiancoding.com/sketch -->
    <title>icone-anexo</title>
    <desc>Created with Sketch.</desc>
    <g id="Symbols" stroke="none" stroke-width="1" fill="none" fill-rule="evenodd">
        <g id="Resultado" transform="translate(-327.000000, -11.000000)" fill="#9B9B9B">
            <g id="Group-3">
                <g id="icone-anexo" transform="translate(326.000000, 10.000000)">
                    <path d="M13.156791,14.2000328 L13.156791,7.60001639 C13.156791,3.77577139 10.6005945,1 7.07839551,1 C3.5563663,1 1,3.77577139 1,7.60001639 L1.00118861,17.1442811 L1.00118861,17.5109805 C1.00118861,18.1184314 1.51135816,18.6109969 2.14081348,18.6109969 C2.7701839,18.6109969 3.28052325,18.1184314 3.28052325,17.5109805 L3.28052325,7.61099689 C3.28052325,5.49151507 4.42065753,3.20003278 7.07831061,3.20003278 C9.73596369,3.20003278 10.8784752,5.49151507 10.8784752,7.61099689 L10.8784752,16.4110461 C10.8784752,16.4920887 10.8898519,16.5703452 10.9086999,16.6460615 L10.8784752,18.6109969 C10.8784752,19.8243418 9.85176853,20.8000492 8.59345219,20.8000492 C7.33513585,20.8000492 6.31191013,19.8133613 6.31191013,18.6000164 L6.31191013,14.2000328 L6.31972101,9.81102966 C6.31972101,9.50750905 6.53010546,9.07771272 7.07958413,9.07771272 C7.58143338,9.07771272 7.83927744,9.49308691 7.83927744,9.81102966 L7.83927744,12.0109805 C7.83927744,12.1125911 7.84292818,12.2050239 7.84810713,12.2933596 C7.84581481,12.3216302 7.83927744,12.3487537 7.83927744,12.377598 L7.83927744,13.8442319 C7.83927744,14.4517648 8.34961679,14.9442483 8.97898721,14.9442483 C9.60844253,14.9442483 10.118697,14.4517648 10.118697,13.8442319 L10.118697,12.377598 C10.118697,12.3427718 10.1113955,12.3099942 10.1080844,12.2759874 C10.1144519,12.1927323 10.118697,12.1057897 10.118697,12.0109805 L10.118697,9.81102966 C10.118697,8.22254503 8.75688644,6.87767994 7.07958413,6.87767994 C5.40211201,6.87767994 4.04038637,8.1573176 4.04038637,9.81102966 L4.03800914,10.8255785 C4.03622622,10.8506533 4.03019826,10.874581 4.03019826,10.9000656 L4.03019826,18.6000164 C4.03019826,21.0262146 6.07724402,23 8.59345219,23 C11.1096604,23 13.1578947,21.0371951 13.1578947,18.6109969 L13.156791,14.2000328 Z" id="Path"></path>
                </g>
            </g>
        </g>
    </g>
</svg>