<?xml version="1.0" encoding="UTF-8"?>
<svg width="15px" height="16px" viewBox="0 0 15 16" version="1.1" xmlns="http://www.w3.org/2000/svg" xmlns:xlink="http://www.w3.org/1999/xlink">
    <!-- Generator: Sketch 52.2 (67145) - http://www.bohemiancoding.com/sketch -->
    <title>Path</title>
    <desc>Created with Sketch.</desc>
    <g id="Symbols" stroke="none" stroke-width="1" fill="none" fill-rule="evenodd">
        <g id="icone-/-bookmark-preenchido" fill="#6A6A6A">
            <path d="M14.760082,0.514161523 C14.6079098,0.32212963 14.4029918,0.181697531 14.1457787,0.0926131687 C13.9819672,0.0310030864 13.8102869,0.000144032922 13.6308197,0.000144032922 L13.6308197,0 L1.36795082,0 C1.18856557,0 1.01704918,0.0308590535 0.853196721,0.0924691358 C0.595819672,0.181481481 0.390983607,0.322093621 0.238893443,0.51401749 C0.0868442623,0.705941358 0.0106967213,0.918317901 0.0106967213,1.15139918 L0.0106967213,14.4031121 C0.0106967213,14.6362654 0.0868442623,14.84857 0.238893443,15.0406739 C0.390983607,15.2325617 0.595819672,15.3731379 0.853196721,15.4621142 C1.01688525,15.5237243 1.18856557,15.5545113 1.36795082,15.5545113 C1.73471311,15.5545113 2.05827869,15.4413735 2.33918033,15.2153858 L7.49942623,10.8561574 L12.6596721,15.2154938 C12.9327459,15.4344599 13.2564754,15.5441409 13.6307787,15.5441409 C13.8258607,15.5441409 13.9975,15.5169187 14.1457377,15.4620782 C14.4029508,15.3731019 14.6078689,15.2325257 14.760041,15.0403858 C14.9120902,14.848534 14.9880738,14.6361934 14.9880738,14.4030761 L14.9880738,1.15154321 C14.9881148,0.918461934 14.9119672,0.706085391 14.760082,0.514161523 Z" id="Path"></path>
        </g>
    </g>
</svg>