<?xml version="1.0" encoding="UTF-8"?>
<svg width="92px" height="82px" viewBox="0 0 92 82" version="1.1" xmlns="http://www.w3.org/2000/svg" xmlns:xlink="http://www.w3.org/1999/xlink">
    <!-- Generator: sketchtool 50.2 (55047) - http://www.bohemiancoding.com/sketch -->
    <title>E91E3D35-ECD4-464D-B831-D8B8D0C94875</title>
    <desc>Created with sketchtool.</desc>
    <defs></defs>
    <g id="Telas" stroke="none" stroke-width="1" fill="none" fill-rule="evenodd">
        <g id="SME-Home" transform="translate(-577.000000, -710.000000)">
            <g id="ver-icon" transform="translate(576.000000, 710.000000)">
                <g id="Group-5">
                    <path d="M88.4987937,0.378993301 L36.4471975,0.378993301 C34.4022703,0.378993301 32.7443182,1.97417879 32.7443182,3.94137524 L32.7443182,78.1085459 C32.7443182,80.0760565 34.4022703,81.671242 36.4471975,81.671242 L88.4987937,81.671242 C90.5437209,81.671242 92.2013464,80.0760565 92.2013464,78.1085459 L92.2013464,3.94137524 C92.2013464,1.97417879 90.5437209,0.378993301 88.4987937,0.378993301" id="Fill-1" fill="#00BABE"></path>
                    <path d="M39.837176,11.6151789 C33.3754446,11.6151789 26.9140505,13.9867519 21.9839363,18.7302223 C12.1240452,28.2168387 12.1240452,43.5979887 21.9839363,53.0846052 C26.9140505,57.8280756 33.3754446,60.1996486 39.837176,60.1996486 C46.2985702,60.1996486 52.7603016,57.8280756 57.6900785,53.0846052 C67.5503069,43.5979887 67.5503069,28.2168387 57.6900785,18.7302223 C52.7603016,13.9867519 46.2985702,11.6151789 39.837176,11.6151789 M39.8394946,15.18487 C45.593207,15.18487 51.0021757,17.3405466 55.0706242,21.2549722 C63.4692836,29.3356759 63.4692836,42.4836152 55.0706242,50.5643189 C51.0021757,54.4787445 45.593207,56.6344211 39.8394946,56.6344211 C34.0857821,56.6344211 28.6764761,54.4787445 24.6083649,50.5643189 C16.2097056,42.4836152 16.2097056,29.3356759 24.6083649,21.2549722 C28.6764761,17.3405466 34.0857821,15.18487 39.8394946,15.18487" id="Fill-3" fill="#231F20"></path>
                    <path d="M21.3994291,56.6196624 L19.0282353,54.325 L13.3804278,59.7905216 L13.3804278,59.7905216 C12.9839211,59.4066314 12.3543517,59.4065615 11.9577596,59.7903635 L1.89691677,69.5267453 C0.883123007,70.5078443 0.856618685,72.1250244 1.83771771,73.1388182 C1.85716001,73.1589084 1.87693081,73.1786781 1.89702214,73.1981192 L1.89702214,73.1981192 C2.9546476,74.2215188 4.63340507,74.2214817 5.69098532,73.1980354 L15.751957,63.4617867 C16.1320953,63.0939175 16.1420415,62.4875376 15.7741723,62.1073993 C15.7668891,62.0998732 15.7594831,62.0924671 15.751957,62.085184 L21.3994291,56.6196624 Z" id="Fill-9" fill="#231F20"></path>
                </g>
            </g>
        </g>
    </g>
</svg>